<svg width="206" height="163" viewBox="0 0 206 163" fill="none" xmlns="http://www.w3.org/2000/svg">
<path d="M110.286 163C151.554 163 185.009 153.035 185.009 140.743C185.009 128.45 151.554 118.485 110.286 118.485C69.018 118.485 35.5636 128.45 35.5636 140.743C35.5636 153.035 69.018 163 110.286 163Z" fill="#F5F5F5"/>
<path d="M181.379 54.1594C181.379 54.1594 168.143 67.959 175.615 88.4357C183.087 108.912 162.805 142.966 162.805 142.966C162.805 142.966 163.019 142.933 163.427 142.859C190.613 137.856 204.12 105.44 189.003 81.3601C183.39 72.4082 178.768 61.905 181.379 54.1594Z" fill="#2091F9"/>
<path d="M181.379 54.1594C181.379 54.1594 173.907 71.075 181.379 84.8745C188.851 98.6741 182.66 137.402 162.805 142.966" stroke="#535461" stroke-width="2" stroke-miterlimit="10"/>
<path d="M204.953 109.974C204.953 109.974 189.848 107.466 188.471 121.579C187.094 135.692 159.436 137.647 159.436 137.647C159.436 137.647 159.616 137.776 159.955 138.007C182.799 153.641 204.637 147.965 201.347 127.206C200.115 119.489 200.214 111.737 204.953 109.974Z" fill="#2091F9"/>
<path opacity="0.2" d="M204.953 109.974C204.953 109.974 189.848 107.466 188.471 121.579C187.094 135.692 159.436 137.647 159.436 137.647C159.436 137.647 159.616 137.776 159.955 138.007C182.799 153.641 204.637 147.965 201.347 127.206C200.115 119.489 200.214 111.737 204.953 109.974Z" fill="#F5F5F5"/>
<path d="M204.953 109.974C204.953 109.974 193.228 112.658 194.191 123.774C195.154 134.889 176.772 148.208 159.428 137.642" stroke="#535461" stroke-width="2" stroke-miterlimit="10"/>
<path opacity="0.2" d="M32.3228 1.01778C30.602 0.955463 28.8386 1.01778 27.2246 1.64544C22.833 3.35258 20.7515 8.93694 21.4283 13.7735C22.105 18.61 24.889 22.8099 27.7775 26.6582C30.6661 30.5065 33.7959 34.3059 35.38 38.8998C36.1699 41.1945 36.5393 43.7652 35.7365 46.0555C34.4983 49.5877 30.7643 51.562 27.1797 51.9715C23.5952 52.381 19.9957 51.582 16.3984 51.3038C14.889 51.1925 13.3369 51.1791 11.915 51.6955C10.3544 52.2586 9.05421 53.4071 7.85865 54.6045C3.19384 59.3008 -0.540149 65.711 0.0640352 72.4416C0.747212 80.0714 6.8403 86.1031 13.5141 89.3371C15.7237 90.4099 18.0615 91.278 20.0064 92.8093C25.1302 96.8467 26.2809 104.412 25.7707 111.091C25.2605 117.771 23.5226 124.457 24.4897 131.079C25.6277 138.78 30.664 145.735 37.4573 148.985C43.5098 151.878 51.0845 151.698 56.4581 147.605C59.0777 145.601 61.0589 142.839 62.7818 139.975C65.3822 135.653 67.4922 131.031 69.0692 126.202C69.8185 123.907 70.523 121.439 72.2716 119.843C73.339 118.861 74.7225 118.312 76.0909 117.884C80.2156 116.598 84.5602 116.244 88.7233 115.1C92.8864 113.956 97.0751 111.824 99.3382 108.011C102.541 102.6 101.046 95.6805 101.061 89.3149C101.087 74.812 109.411 61.827 112.483 47.6936C113.486 43.073 113.86 37.9605 111.618 33.8407C110.094 31.0296 107.526 29.0264 104.825 27.4684C98.8898 24.0319 92.1435 22.5028 85.506 21.0138C76.281 18.9483 65.079 18.6812 57.9291 11.9996C51.0675 5.58944 41.6802 1.01778 32.3228 1.01778Z" fill="#2091F9"/>
<g opacity="0.5">
<path opacity="0.5" d="M65.7856 57.153C65.7852 53.6573 65.26 50.1832 64.2293 46.8568L61.6674 38.5748C61.6674 38.4368 61.6674 38.3011 61.6674 38.1653C61.7464 32.8569 57.7775 30.2083 56.2489 30.4954C54.684 30.7892 50.3416 28.519 50.3416 28.519V28.5813C50.0438 28.224 49.7753 27.8413 49.5388 27.4373C50.2891 26.8676 50.9226 26.1473 51.402 25.3187C51.8815 24.4902 52.1972 23.57 52.3307 22.6124C52.4641 21.6549 52.4126 20.6791 52.1792 19.7426C51.9458 18.806 51.5351 17.9275 50.9714 17.1588C51.4407 16.7912 51.7987 16.2905 52.0026 15.7165C52.3569 14.6771 52.0858 13.4908 51.5094 12.5649C51.2643 12.1784 50.9778 11.8222 50.6554 11.5032C50.1671 10.9989 49.6338 10.5443 49.0628 10.1455C47.6388 9.11724 46.0739 8.23363 44.3659 7.9198C44.0704 7.84705 43.7627 7.84705 43.4671 7.9198C43.2106 8.02771 42.9664 8.16507 42.7391 8.32933C41.5692 9.02376 40.1131 8.72329 38.7639 8.64984C37.4146 8.57639 35.775 8.97034 35.348 10.2902C35.2156 10.6975 35.2242 11.1382 35.1345 11.5566C34.921 12.5805 34.1631 13.3751 33.5781 14.2275C32.9932 15.08 32.5555 16.2307 33.0423 17.1566C33.2088 17.4682 33.4692 17.7553 33.4692 18.1114C33.4692 18.3674 33.3241 18.5966 33.2558 18.8415C33.1084 19.3979 33.386 19.9543 33.813 20.3572C33.997 20.564 34.2136 20.7364 34.4535 20.8669C35.1302 21.2275 35.9095 21.3387 36.599 21.6726C36.9433 21.8411 37.259 22.0666 37.5341 22.3403C37.8711 22.7081 38.1346 23.1421 38.309 23.6171C38.4835 24.0921 38.5655 24.5985 38.5504 25.1069L38.6934 25.1225C38.6934 25.167 38.6934 25.2093 38.6934 25.2538C38.8429 25.2716 39.0008 25.2872 39.1567 25.2939C39.3809 25.6712 39.6374 26.0265 39.9231 26.3556C39.8747 26.5455 39.8199 26.7384 39.7587 26.9342C39.257 27.297 35.1537 30.146 30.4868 29.4604C25.506 28.7282 22.658 51.4307 22.658 51.4307C22.4734 52.7289 22.3834 54.04 22.389 55.3524C22.3676 58.691 23.0401 63.0601 26.7869 62.4169L28.7788 61.7336V72.9624C28.7788 72.9624 29.0628 76.0384 28.0679 78.0816C27.073 80.1248 31.1998 79.3992 31.1998 79.3992C31.1998 79.3992 31.3578 79.5706 31.6482 79.8622L31.5564 80.1315L31.678 80.2606C31.1353 82.1951 30.4034 84.0663 29.494 85.845L29.6114 85.9073C29.5367 86.0564 29.494 86.1299 29.494 86.1299C29.494 86.1299 31.0269 86.9467 33.1362 87.9995C34.8313 93.9733 38.5418 107.809 37.3207 110.444L37.3548 110.519C37.5833 111.014 38.8599 113.927 38.6016 116.596C38.3689 118.982 41.5371 129.823 42.7199 133.761L42.1605 133.879L44.1524 141.348L43.7254 146.182C43.7254 146.182 41.3066 152.92 46.9983 151.602C52.69 150.284 51.1251 144.865 51.1251 144.865L51.2681 133.879C51.2681 133.879 50.7195 133.56 50.0427 133.255C49.5773 131.944 48.5632 128.846 48.5632 126.703C48.5632 123.921 46.7122 111.908 46.7122 111.908V111.884V111.837V111.824L46.7015 111.663V111.637C46.7015 111.488 46.678 111.283 46.661 111.034V111.02C46.4475 107.773 45.807 96.7399 46.2745 90.9886C46.6857 90.6963 47.1135 90.4302 47.5555 90.1918C48.9411 93.842 52.5128 103.704 52.2844 107.842C52.0004 112.961 52.2139 108.941 52.2844 108.287C52.3057 108.084 52.3207 108.329 52.3271 108.879C52.3271 108.979 52.3271 109.091 52.3271 109.208C52.3271 109.326 52.3271 109.458 52.3271 109.594C52.3271 109.729 52.3271 109.876 52.3271 110.039C52.3271 110.116 52.3271 110.194 52.3271 110.275C52.3271 110.435 52.3271 110.603 52.3271 110.778C52.3271 110.865 52.3271 110.954 52.3271 111.045C52.3271 111.49 52.3271 111.984 52.3121 112.498C52.3121 112.601 52.3121 112.704 52.3121 112.81C52.3121 113.124 52.3121 113.444 52.2972 113.769C52.2972 114.214 52.2801 114.646 52.2716 115.093C52.2502 116.095 52.2225 117.108 52.1883 118.056C52.1883 118.161 52.1847 118.266 52.1776 118.37C52.1705 118.577 52.1627 118.781 52.1541 118.979C52.1456 119.178 52.1371 119.373 52.1285 119.563C52.12 119.751 52.1107 119.934 52.1008 120.112C52.0901 120.322 52.0773 120.522 52.0666 120.713L51.2938 120.598L51.1294 122.449C50.8704 125.389 51.2348 128.353 52.1968 131.13C52.4616 131.891 52.6665 132.521 52.7113 132.746C52.8544 133.478 52.7113 138.755 52.7113 138.755C52.7113 138.755 53.5653 145.639 57.5512 144.319C59.3446 143.725 60.2156 141.918 60.6319 140.106C61.0939 138.006 60.9216 135.808 60.1388 133.814C59.573 132.332 58.9944 130.253 59.4022 128.646C60.1131 125.864 60.1131 121.909 60.1131 121.909L59.6734 121.844C59.783 121.627 59.882 121.404 59.9701 121.176C59.9701 121.176 59.8271 111.069 61.108 109.752C61.8125 109.026 61.7485 107.283 61.535 105.859C61.23 103.797 61.1584 101.706 61.3215 99.6267C61.409 98.5561 61.535 97.6236 61.6823 97.2919C62.0581 96.5174 62.4338 88.7095 60.7707 84.9524L61.1123 84.8412L61.0589 84.5652L61.1123 84.5474C61.3632 85.2454 61.6482 85.9296 61.9663 86.5973C62.0503 86.6659 62.1469 86.7159 62.2502 86.7442C66.8595 85.9006 67.0453 81.4158 66.7891 78.9674C66.9833 79.0654 67.0901 79.1277 67.0901 79.1277L67.5171 72.6731C67.9547 71.6426 68.117 70.3272 68.1063 68.9049C68.1255 63.8213 65.7856 57.153 65.7856 57.153ZM60.7045 75.4997C60.3885 72.6887 59.9509 70.0423 59.9509 70.0423L57.816 62.132V59.2519L61.202 72.4282L60.7045 75.4997Z" fill="url(#paint0_linear_78_80)"/>
</g>
<path d="M51.1059 118.708L50.9479 120.517C50.6986 123.393 51.0519 126.29 51.9833 129.009C52.2374 129.754 52.4359 130.368 52.4786 130.589C52.6153 131.306 52.4786 136.458 52.4786 136.458C52.4786 136.458 53.3027 143.186 57.1477 141.898C58.877 141.319 59.7096 139.55 60.1195 137.78C60.5639 135.728 60.3971 133.583 59.6413 131.633C59.0948 130.184 58.5354 128.147 58.9304 126.583C59.6178 123.863 59.6178 119.999 59.6178 119.999L51.1059 118.708Z" fill="#5A5773"/>
<path d="M46.9876 87.6456C46.9876 87.6456 52.342 101.245 52.0666 106.253C51.7912 111.261 51.9983 107.326 52.0666 106.682C52.1883 105.536 52.0666 119.146 51.6546 120.704C51.6546 120.704 57.2844 124.998 59.4812 119.273C59.4812 119.273 59.3446 109.398 60.5786 108.109C61.2575 107.401 61.1913 105.696 60.9906 104.305C60.6944 102.293 60.6228 100.252 60.7771 98.2223C60.8604 97.1762 60.9757 96.2547 61.1251 95.9409C61.5372 95.0818 61.9492 85.3486 59.4769 82.6288L46.9876 87.6456Z" fill="#605D82"/>
<path opacity="0.1" d="M52.342 120.711C52.7541 119.137 52.8757 105.536 52.754 106.689C52.6857 107.332 52.4786 111.27 52.754 106.259C53.0295 101.249 47.6751 87.6523 47.6751 87.6523L59.6541 82.8491C59.5986 82.7757 59.541 82.7067 59.4833 82.6422L46.9897 87.6523C46.9897 87.6523 52.3441 101.252 52.0687 106.259C51.7933 111.267 52.0004 107.332 52.0687 106.689C52.1904 105.543 52.0687 119.153 51.6567 120.711C51.6567 120.711 53.9048 122.425 56.1144 122.242C54.1482 122.089 52.342 120.711 52.342 120.711Z" fill="black"/>
<path d="M42.3185 131.733L44.24 139.033L43.8279 143.756C43.8279 143.756 41.4945 150.34 46.9855 149.051C52.4765 147.763 50.9671 142.468 50.9671 142.468L51.1038 131.733C51.1038 131.733 48.9069 130.444 47.9462 130.589C46.9855 130.734 42.3185 131.733 42.3185 131.733Z" fill="#5A5773"/>
<path d="M32.8459 84.2113C32.8459 84.2113 39.161 105.538 37.6516 108.83C37.6516 108.83 39.161 111.98 38.8877 114.84C38.6144 117.7 43.2814 133.017 43.2814 133.017L50.1473 131.728C50.1473 131.728 48.4991 127.435 48.4991 124.715C48.4991 121.995 46.7143 110.248 46.7143 110.248C46.7143 110.248 45.205 88.7763 46.9897 86.486L32.8459 84.2113Z" fill="#605D82"/>
<g opacity="0.1">
<path opacity="0.1" d="M46.456 88.231C45.3181 93.092 46.5756 110.98 46.5756 110.98C46.5756 110.98 48.3604 122.716 48.3604 125.447C48.3604 127.524 49.319 130.515 49.7737 131.815L50.1452 131.746C50.1452 131.746 48.497 127.453 48.497 124.733C48.497 122.013 46.7122 110.266 46.7122 110.266C46.7122 110.266 45.5636 93.9177 46.456 88.231Z" fill="black"/>
<path opacity="0.1" d="M37.6516 108.83L37.6857 108.904C37.6964 108.83 37.7071 108.752 37.7135 108.681C37.6953 108.732 37.6746 108.782 37.6516 108.83Z" fill="black"/>
<path opacity="0.1" d="M46.678 87.1893C46.7404 86.9424 46.8453 86.7094 46.9876 86.5016L32.8459 84.2113C32.8459 84.2113 32.9291 84.4895 33.0722 84.9859L46.678 87.1893Z" fill="black"/>
</g>
<path d="M65.7963 76.4813C65.7963 76.4813 67.8565 84.494 61.678 85.6424C61.5778 85.6152 61.484 85.5668 61.4026 85.5C61.4026 85.5 57.833 78.1996 60.5786 75.3373L65.7963 76.4813Z" fill="#FAC3CA"/>
<path d="M40.5337 23.2395C40.5337 23.2395 40.9458 29.249 36.4155 32.1135C31.8852 34.978 46.0226 42.8482 46.0226 42.8482L53.4372 30.5377C53.4372 30.5377 50.2818 30.9628 48.3604 25.2427L40.5337 23.2395Z" fill="#FAC3CA"/>
<path opacity="0.1" d="M37.5128 32.5386C37.5128 32.5386 44.5154 47.7115 50.8305 33.3978L60.5786 83.7795C60.5786 83.7795 45.474 88.6472 45.3395 90.9374C45.205 93.2277 30.1025 85.0704 30.1025 85.0704C30.1025 85.0704 33.3967 78.7716 32.5747 74.9077C31.7528 71.0438 37.5128 32.5386 37.5128 32.5386Z" fill="black"/>
<path d="M37.5128 32.2515C37.5128 32.2515 44.5154 47.4243 50.8305 33.1107L60.5786 83.4946C60.5786 83.4946 45.474 88.3622 45.3395 90.6525C45.205 92.9428 30.1025 84.7833 30.1025 84.7833C30.1025 84.7833 33.3967 78.4844 32.5747 74.6206C31.7528 70.7567 37.5128 32.2515 37.5128 32.2515Z" fill="#E1E7EF"/>
<path d="M44.3787 135.741C44.3787 135.741 42.5939 131.59 46.7122 131.59C50.8305 131.59 50.1452 135.312 50.1452 135.312L44.3787 135.741Z" fill="#5A5773"/>
<path d="M53.7148 125.004C53.7148 125.004 52.0666 120.566 56.187 120.424C60.3074 120.281 58.2472 124.43 58.2472 124.43L53.7148 125.004Z" fill="#5A5773"/>
<path opacity="0.1" d="M50.2135 29.0264C50.2135 29.0264 54.4001 31.2522 55.9116 30.9584C57.4232 30.6646 61.4027 33.3911 61.1294 38.8308L63.6102 46.9458C64.6026 50.1997 65.1067 53.5939 65.1046 57.0083C65.1046 57.0083 68.6742 67.3135 66.7528 71.8941L66.3407 78.1929C66.3407 78.1929 63.1832 76.3322 59.8869 76.9042L60.7173 71.7605L57.0026 57.1575L50.8241 41.5551L50.2135 29.0264Z" fill="black"/>
<path d="M50.2135 28.7438C50.2135 28.7438 54.4001 30.9695 55.9116 30.6757C57.4232 30.3819 61.4027 33.1084 61.1294 38.5481L63.6102 46.6632C64.6026 49.917 65.1067 53.3113 65.1046 56.7257C65.1046 56.7257 68.6742 67.0308 66.7528 71.6114L66.3407 77.9102C66.3407 77.9102 63.1832 76.0495 59.8869 76.6215L60.7109 71.469L57.0026 56.8704L50.8305 41.268L50.2135 28.7438Z" fill="#67647E"/>
<path opacity="0.1" d="M57.1477 46.1357V62.3101L59.208 70.04C59.208 70.04 60.5807 78.4845 60.1687 81.0619C59.7566 83.6393 53.1661 84.2113 51.3813 82.0634C49.5965 79.9156 50.5572 61.5867 50.5572 61.5867L50.2135 34.7555L50.4889 33.8964L57.1477 46.1357Z" fill="black"/>
<path d="M57.4295 45.4212V61.5956L59.4897 69.3255C59.4897 69.3255 60.8625 77.77 60.4505 80.3474C60.0384 82.9248 53.4479 83.4968 51.6631 81.349C49.8783 79.2011 50.839 60.8722 50.839 60.8722L50.4953 34.0343L57.4295 45.4212Z" fill="#67647E"/>
<path opacity="0.1" d="M29.7566 58.8757L34.1503 73.1204L32.0901 79.2034C32.0901 79.2034 41.8382 89.9381 48.0167 84.7855C48.0167 84.7855 48.7041 62.8843 47.3292 57.7317C45.9543 52.5791 39.3659 35.2518 39.3659 35.2518L38.0017 30.6779L30.7259 34.9714L29.7566 58.8757Z" fill="black"/>
<path d="M29.4129 58.1591V72.1812C29.4129 72.1812 29.6883 75.1881 28.7255 77.1913C27.7626 79.1945 31.7464 78.48 31.7464 78.48C31.7464 78.48 41.4945 89.2147 47.6729 84.0621C47.6729 84.0621 48.3604 62.1609 46.9855 57.0083C45.6106 51.8558 39.0222 34.5284 39.0222 34.5284L37.6495 29.9479L30.3736 34.2413L29.4129 58.1591Z" fill="#67647E"/>
<path opacity="0.1" d="M40.0534 27.4573C40.0534 27.4573 35.8668 30.6779 31.0611 29.9612C26.2553 29.2445 23.5098 51.4329 23.5098 51.4329C23.5098 51.4329 21.725 62.8843 27.4915 61.8827L40.2605 57.4446C40.2605 57.4446 37.5149 54.4376 37.927 50.5737L31.7464 53.1489L32.0239 40.8406L40.0534 27.4573Z" fill="black"/>
<path opacity="0.1" d="M23.7831 51.1458C23.7831 51.1458 21.9983 62.5971 27.7647 61.5956L40.5337 57.1575C40.5337 57.1575 37.7882 54.1527 38.2003 50.2866L32.0239 52.864L23.7831 51.1458Z" fill="black"/>
<path d="M37.8971 51.7957C37.8971 51.7957 42.1819 45.922 45.3373 48.742C48.4927 51.562 39.0286 56.7301 39.0286 56.7301L37.8971 51.7957Z" fill="#FAC3CA"/>
<path d="M40.0534 27.1702C40.0534 27.1702 35.8668 30.3908 31.0611 29.6741C26.2553 28.9574 23.5098 51.1458 23.5098 51.1458C23.5098 51.1458 21.725 62.5972 27.4915 61.5956L40.2605 57.1575C40.2605 57.1575 37.5149 54.1505 37.927 50.2866L31.7464 52.864L32.0239 40.5535L39.0265 34.544L40.0534 27.1702Z" fill="#67647E"/>
<path opacity="0.1" d="M48.497 25.5231L40.6704 23.52C40.6704 23.52 41.0781 24.0007 40.6021 25.8815C41.8617 27.3883 43.4095 29.3892 45.4761 29.3892C46.955 29.3921 48.3949 28.8946 49.5794 27.9714C49.1374 27.1971 48.7746 26.3765 48.497 25.5231Z" fill="black"/>
<path d="M45.3394 29.1044C49.1314 29.1044 52.2054 25.8996 52.2054 21.9464C52.2054 17.9932 49.1314 14.7885 45.3394 14.7885C41.5475 14.7885 38.4735 17.9932 38.4735 21.9464C38.4735 25.8996 41.5475 29.1044 45.3394 29.1044Z" fill="#FAC3CA"/>
<path opacity="0.1" d="M47.9419 18.8393C49.5346 18.5566 51.2852 17.8199 51.819 16.2307C52.1606 15.2135 51.9001 14.0562 51.3429 13.1503C50.7857 12.2444 49.9659 11.5478 49.1204 10.9246C47.7477 9.91852 46.234 9.05494 44.5816 8.75224C44.2967 8.68122 43.9997 8.68122 43.7148 8.75224C43.467 8.85797 43.2314 8.99235 43.0124 9.15287C41.883 9.83172 40.4782 9.53792 39.1695 9.4667C37.8608 9.39547 36.2916 9.78053 35.8796 11.0692C35.7515 11.4676 35.76 11.8972 35.6661 12.3067C35.4526 13.3083 34.7289 14.0873 34.1717 14.922C33.6144 15.7566 33.1853 16.8851 33.655 17.7843C33.8151 18.0892 34.082 18.3696 34.082 18.7168C34.0408 18.9636 33.969 19.2038 33.8685 19.4313C33.6742 20.1702 34.24 20.9159 34.8933 21.2675C35.5466 21.6192 36.2981 21.7283 36.9641 22.0554C37.5876 22.3762 38.1096 22.8768 38.468 23.4979C38.8264 24.119 39.0062 24.8343 38.9859 25.5587C39.5922 25.6322 40.2989 25.67 40.7088 25.1982C40.8924 24.9867 40.9821 24.7041 41.1486 24.4793C41.3621 24.1855 41.6951 24.0119 41.9684 23.7759C43.4052 22.5451 42.3847 20.8446 43.1981 19.5181C43.6251 18.8348 44.304 19.044 44.9915 19.0552C45.9793 19.0793 46.9671 19.007 47.9419 18.8393Z" fill="black"/>
<path d="M47.8053 18.6968C49.3979 18.4141 51.1486 17.6774 51.6823 16.0882C52.0239 15.0711 51.7634 13.9137 51.2062 13.0078C50.649 12.102 49.8292 11.4053 48.9838 10.7821C47.611 9.77606 46.0973 8.91248 44.4449 8.60978C44.16 8.53876 43.863 8.53876 43.5781 8.60978C43.3304 8.71551 43.0948 8.84989 42.8757 9.01041C41.7464 9.68926 40.3416 9.39547 39.0329 9.32424C37.7242 9.25302 36.155 9.63807 35.7429 10.9268C35.6149 11.3252 35.6234 11.7547 35.5295 12.1643C35.316 13.1659 34.5922 13.9449 34.035 14.7795C33.4778 15.6142 33.0487 16.7426 33.5184 17.6418C33.6785 17.9467 33.9453 18.2272 33.9453 18.5744C33.9041 18.8212 33.8324 19.0613 33.7318 19.2888C33.5376 20.0278 34.1033 20.7734 34.7566 21.1251C35.4099 21.4767 36.1614 21.5858 36.8275 21.913C37.4535 22.2334 37.9777 22.735 38.3374 23.3579C38.6971 23.9808 38.877 24.6985 38.8557 25.4252C39.462 25.4986 40.1687 25.5365 40.5786 25.0646C40.7622 24.8532 40.8518 24.5705 41.0184 24.3457C41.2318 24.0519 41.5649 23.8783 41.8382 23.6424C43.275 22.4116 42.2545 20.7111 43.0679 19.3846C43.4949 18.7013 44.1738 18.9105 44.8612 18.9216C45.8471 18.9423 46.8328 18.8671 47.8053 18.6968Z" fill="#4A4347"/>
<path opacity="0.1" d="M56.1166 42.7726C56.1166 42.7726 57.626 50.9321 56.9407 54.0815C56.5219 55.9137 56.5839 57.8295 57.12 59.6281" fill="black"/>
<path opacity="0.1" d="M31.7165 46.2068C31.7165 46.2068 31.0589 51.6465 32.1541 52.7906L31.7165 46.2068Z" fill="black"/>
<path d="M70.0534 113.244C70.1383 113.244 70.2198 113.209 70.2798 113.146C70.3399 113.083 70.3736 112.998 70.3736 112.91C70.3736 112.821 70.3399 112.736 70.2798 112.674C70.2198 112.611 70.1383 112.576 70.0534 112.576C69.9685 112.576 69.887 112.611 69.8269 112.674C69.7669 112.736 69.7332 112.821 69.7332 112.91C69.7332 112.998 69.7669 113.083 69.8269 113.146C69.887 113.209 69.9685 113.244 70.0534 113.244Z" fill="black"/>
<g opacity="0.5">
<path opacity="0.5" d="M168.659 74.3491V74.1643L110.41 27.4684C110.373 27.4401 110.329 27.4247 110.283 27.4247C110.237 27.4247 110.193 27.4401 110.156 27.4684L51.9044 74.1643V146.545H52.0154V146.661H168.772V74.2801L168.659 74.3491Z" fill="url(#paint1_linear_78_80)"/>
</g>
<path d="M166.648 144.526H53.924V74.6384L110.286 29.456L166.648 74.6384V144.526Z" fill="white"/>
<path d="M162.592 140.384H57.9803V75.5265L110.286 33.5959L162.592 75.5265V140.384Z" fill="#E0E0E0"/>
<path d="M128.031 32.6267L64.2181 50.0674L85.4949 134.679L149.308 117.239L128.031 32.6267Z" fill="#2091F9"/>
<path d="M143.591 45.4813H77.6217V132.953H143.591V45.4813Z" fill="#F5F5F5"/>
<path opacity="0.05" d="M54.4577 74.7497L110.82 109.694L54.4577 144.638V74.7497Z" fill="black"/>
<path d="M54.0308 74.7497L110.393 109.694L54.0308 144.638V74.7497Z" fill="white"/>
<path opacity="0.05" d="M166.328 74.7497L109.966 109.694L166.328 144.638V74.7497Z" fill="black"/>
<path d="M166.755 74.7497L110.393 109.694L166.755 144.638V74.7497Z" fill="white"/>
<path opacity="0.05" d="M54.0308 143.525L110.393 97.6747L166.755 143.525H54.0308Z" fill="black"/>
<path d="M54.0308 144.638L110.393 98.7876L166.755 144.638H54.0308Z" fill="white"/>
<path d="M65.4846 149.946C65.4846 149.946 62.6537 139.93 66.0162 132.554C67.445 129.471 67.8757 125.988 67.2438 122.627C66.9322 121.035 66.4812 119.476 65.8967 117.969" stroke="#535461" stroke-width="2" stroke-miterlimit="10"/>
<path d="M67.9868 113.308C67.9868 114.537 65.8518 118.096 65.8518 118.096C65.8518 118.096 63.7169 114.535 63.7169 113.308C63.7169 112.718 63.9418 112.152 64.3422 111.734C64.7426 111.317 65.2856 111.083 65.8518 111.083C66.4181 111.083 66.9611 111.317 67.3615 111.734C67.7618 112.152 67.9868 112.718 67.9868 113.308Z" fill="#6C63FF"/>
<path d="M71.52 120.11C70.8796 121.141 67.2331 122.921 67.2331 122.921C67.2331 122.921 67.2993 118.724 67.9398 117.693C68.2591 117.227 68.7385 116.907 69.2782 116.8C69.8179 116.693 70.3764 116.807 70.8376 117.118C71.2988 117.43 71.627 117.914 71.7541 118.472C71.8812 119.029 71.7974 119.616 71.52 120.11Z" fill="#6C63FF"/>
<path d="M71.3578 131.731C70.3053 132.283 66.2959 131.902 66.2959 131.902C66.2959 131.902 68.386 128.314 69.4364 127.762C69.6878 127.616 69.965 127.524 70.2515 127.492C70.5379 127.46 70.8276 127.488 71.103 127.576C71.3785 127.664 71.6341 127.809 71.8544 128.002C72.0747 128.196 72.2551 128.434 72.3849 128.702C72.5146 128.97 72.591 129.263 72.6093 129.563C72.6277 129.862 72.5877 130.163 72.4918 130.446C72.3958 130.729 72.2459 130.989 72.051 131.21C71.8561 131.432 71.6203 131.609 71.3578 131.733V131.731Z" fill="#6C63FF"/>
<path d="M69.3424 140.498C68.3945 141.228 64.3809 141.557 64.3809 141.557C64.3809 141.557 65.8582 137.653 66.8061 136.923C67.2622 136.606 67.8179 136.484 68.358 136.582C68.8981 136.68 69.3813 136.992 69.7074 137.451C70.0334 137.911 70.1774 138.483 70.1095 139.051C70.0415 139.618 69.7669 140.136 69.3424 140.498Z" fill="#6C63FF"/>
<path d="M62.7477 123.157C63.6016 124.012 67.5278 124.9 67.5278 124.9C67.5278 124.9 66.5649 120.825 65.7195 119.97C65.3082 119.591 64.7728 119.392 64.2244 119.413C63.676 119.435 63.1566 119.676 62.7742 120.087C62.3918 120.497 62.1757 121.045 62.1707 121.617C62.1658 122.19 62.3724 122.742 62.7477 123.159V123.157Z" fill="#6C63FF"/>
<path d="M60.5145 133.442C61.5671 133.994 65.5765 133.614 65.5765 133.614C65.5765 133.614 63.4864 130.026 62.436 129.474C61.9344 129.238 61.3647 129.212 60.8458 129.403C60.3268 129.595 59.8987 129.987 59.6508 130.5C59.4029 131.012 59.3544 131.604 59.5153 132.153C59.6762 132.702 60.0342 133.164 60.5145 133.445V133.442Z" fill="#6C63FF"/>
<path d="M59.6606 143.747C60.6085 144.477 64.6221 144.807 64.6221 144.807C64.6221 144.807 63.1448 140.903 62.1968 140.173C61.9731 139.982 61.7144 139.841 61.4366 139.757C61.1589 139.674 60.8677 139.65 60.5809 139.687C60.294 139.725 60.0174 139.822 59.7678 139.974C59.5183 140.127 59.301 140.33 59.129 140.572C58.9571 140.815 58.8342 141.091 58.7677 141.384C58.7012 141.677 58.6926 141.982 58.7423 142.279C58.792 142.575 58.899 142.859 59.0568 143.111C59.2147 143.364 59.4201 143.58 59.6606 143.747Z" fill="#6C63FF"/>
<path opacity="0.5" d="M107.938 49.4876H81.4646V51.7134H107.938V49.4876Z" fill="#6C63FF"/>
<path opacity="0.5" d="M138.681 58.3906H81.4646V60.6163H138.681V58.3906Z" fill="#6C63FF"/>
<path opacity="0.5" d="M138.681 64.1774H81.4646V66.4032H138.681V64.1774Z" fill="#6C63FF"/>
<path opacity="0.4" d="M138.681 69.9644H81.4646V72.1901H138.681V69.9644Z" fill="#6C63FF"/>
<path opacity="0.4" d="M138.681 75.7513H81.4646V77.977H138.681V75.7513Z" fill="#6C63FF"/>
<path opacity="0.3" d="M114.129 81.5381H81.4646V83.7639H114.129V81.5381Z" fill="#6C63FF"/>
<path opacity="0.3" d="M126.085 87.3251H81.4646V89.5508H126.085V87.3251Z" fill="#6C63FF"/>
<defs>
<linearGradient id="paint0_linear_78_80" x1="22.3911" y1="79.831" x2="68.0828" y2="79.831" gradientUnits="userSpaceOnUse">
<stop stop-color="#808080" stop-opacity="0.25"/>
<stop offset="0.54" stop-color="#808080" stop-opacity="0.12"/>
<stop offset="1" stop-color="#808080" stop-opacity="0.1"/>
</linearGradient>
<linearGradient id="paint1_linear_78_80" x1="74477" y1="88327.8" x2="74477" y2="24447" gradientUnits="userSpaceOnUse">
<stop stop-color="#808080" stop-opacity="0.25"/>
<stop offset="0.54" stop-color="#808080" stop-opacity="0.12"/>
<stop offset="1" stop-color="#808080" stop-opacity="0.1"/>
</linearGradient>
</defs>
</svg>
