<svg width="539" height="579" viewBox="0 0 539 579" fill="none" xmlns="http://www.w3.org/2000/svg">
<path d="M506.768 440.05H101.832C98.2239 440.045 94.7649 438.61 92.2136 436.059C89.6623 433.508 88.2272 430.049 88.223 426.441V96.7177C88.2272 93.1096 89.6623 89.6505 92.2136 87.0993C94.7649 84.548 98.2239 83.1128 101.832 83.1086H506.768C510.376 83.1128 513.835 84.548 516.386 87.0993C518.937 89.6505 520.372 93.1096 520.377 96.7177V426.441C520.372 430.049 518.937 433.508 516.386 436.059C513.835 438.61 510.376 440.045 506.768 440.05V440.05Z" fill="#E6E6E6"/>
<path d="M467.423 430.87H111.014C107.406 430.866 103.947 429.431 101.395 426.879C98.844 424.328 97.4088 420.869 97.4047 417.261V105.904C97.4088 102.296 98.844 98.8373 101.395 96.286C103.947 93.7347 107.406 92.2996 111.014 92.2954H497.588C501.196 92.2996 504.655 93.7347 507.206 96.286C509.758 98.8373 511.193 102.296 511.197 105.904V387.096C511.184 398.702 506.568 409.828 498.362 418.035C490.155 426.241 479.029 430.857 467.423 430.87V430.87Z" fill="white"/>
<path d="M369.482 162.698H206.729C206.268 162.699 205.811 162.609 205.384 162.433C204.958 162.257 204.57 161.999 204.244 161.673C203.917 161.347 203.658 160.959 203.481 160.533C203.305 160.107 203.214 159.65 203.214 159.189C203.214 158.727 203.305 158.27 203.481 157.844C203.658 157.418 203.917 157.031 204.244 156.705C204.57 156.379 204.958 156.12 205.384 155.944C205.811 155.768 206.268 155.678 206.729 155.679H369.482C370.412 155.681 371.304 156.051 371.96 156.709C372.617 157.367 372.986 158.259 372.986 159.189C372.986 160.119 372.617 161.01 371.96 161.668C371.304 162.326 370.412 162.697 369.482 162.698V162.698Z" fill="#519CFC"/>
<path d="M451.871 200.146H206.729C205.798 200.146 204.906 199.776 204.247 199.118C203.589 198.459 203.22 197.567 203.22 196.636C203.22 195.705 203.589 194.812 204.247 194.154C204.906 193.496 205.798 193.126 206.729 193.126H451.871C452.802 193.126 453.695 193.496 454.353 194.154C455.011 194.812 455.381 195.705 455.381 196.636C455.381 197.567 455.011 198.459 454.353 199.118C453.695 199.776 452.802 200.146 451.871 200.146V200.146Z" fill="#E6E6E6"/>
<path d="M451.871 237.593H206.729C206.268 237.593 205.811 237.503 205.384 237.327C204.958 237.151 204.57 236.893 204.244 236.567C203.917 236.241 203.658 235.853 203.481 235.427C203.305 235.001 203.214 234.544 203.214 234.083C203.214 233.621 203.305 233.164 203.481 232.738C203.658 232.312 203.917 231.925 204.244 231.599C204.57 231.273 204.958 231.014 205.384 230.838C205.811 230.662 206.268 230.572 206.729 230.573H451.871C452.801 230.575 453.692 230.945 454.349 231.603C455.006 232.261 455.375 233.153 455.375 234.083C455.375 235.013 455.006 235.904 454.349 236.562C453.692 237.221 452.801 237.591 451.871 237.593V237.593Z" fill="#E6E6E6"/>
<path d="M451.871 275.04H206.729C205.798 275.04 204.906 274.67 204.247 274.012C203.589 273.353 203.22 272.461 203.22 271.53C203.22 270.599 203.589 269.706 204.247 269.048C204.906 268.39 205.798 268.02 206.729 268.02H451.871C452.802 268.02 453.695 268.39 454.353 269.048C455.011 269.706 455.381 270.599 455.381 271.53C455.381 272.461 455.011 273.353 454.353 274.012C453.695 274.67 452.802 275.04 451.871 275.04V275.04Z" fill="#E6E6E6"/>
<path d="M451.871 312.487H206.729C205.798 312.487 204.906 312.117 204.247 311.459C203.589 310.8 203.22 309.908 203.22 308.977C203.22 308.046 203.589 307.153 204.247 306.495C204.906 305.837 205.798 305.467 206.729 305.467H451.871C452.802 305.467 453.695 305.837 454.353 306.495C455.011 307.153 455.381 308.046 455.381 308.977C455.381 309.908 455.011 310.8 454.353 311.459C453.695 312.117 452.802 312.487 451.871 312.487V312.487Z" fill="#E6E6E6"/>
<path d="M440.847 372.161C437.332 372.161 433.896 371.118 430.974 369.165C428.051 367.213 425.773 364.437 424.428 361.19C423.083 357.942 422.731 354.369 423.417 350.921C424.102 347.474 425.795 344.307 428.281 341.822C430.766 339.337 433.933 337.644 437.38 336.958C440.828 336.272 444.401 336.624 447.648 337.97C450.896 339.315 453.671 341.593 455.624 344.515C457.577 347.438 458.619 350.874 458.619 354.389C458.619 359.102 456.747 363.622 453.414 366.955C450.081 370.288 445.561 372.161 440.847 372.161Z" fill="#519CFC"/>
<path d="M450.845 353.545L445.807 346.191C445.583 345.864 445.238 345.639 444.849 345.566C444.459 345.494 444.057 345.579 443.73 345.803C443.403 346.027 443.178 346.371 443.106 346.761C443.033 347.15 443.118 347.553 443.342 347.88L446.6 352.636H433.835C433.37 352.636 432.924 352.82 432.595 353.149C432.266 353.478 432.082 353.924 432.082 354.389C432.082 354.854 432.266 355.3 432.595 355.628C432.924 355.957 433.37 356.142 433.835 356.142H446.76L443.342 361.132C443.118 361.459 443.033 361.861 443.106 362.251C443.178 362.64 443.403 362.985 443.73 363.209C444.057 363.433 444.459 363.518 444.849 363.445C445.238 363.372 445.583 363.148 445.807 362.821L450.845 355.467C451.009 355.173 451.096 354.842 451.096 354.506C451.096 354.169 451.009 353.838 450.845 353.545L450.845 353.545Z" fill="white"/>
<path d="M536.947 34.4843H71.6544C71.1819 34.4742 70.7322 34.2794 70.4016 33.9417C70.071 33.604 69.8859 33.1503 69.8859 32.6777C69.8859 32.2051 70.071 31.7513 70.4016 31.4136C70.7322 31.0759 71.1819 30.8812 71.6544 30.8711H536.947C537.42 30.8812 537.87 31.0759 538.2 31.4136C538.531 31.7513 538.716 32.2051 538.716 32.6777C538.716 33.1503 538.531 33.604 538.2 33.9417C537.87 34.2794 537.42 34.4742 536.947 34.4843V34.4843Z" fill="#CACACA"/>
<path d="M102.579 21.6469C108.426 21.6469 113.166 16.8011 113.166 10.8235C113.166 4.84582 108.426 0 102.579 0C96.7314 0 91.9912 4.84582 91.9912 10.8235C91.9912 16.8011 96.7314 21.6469 102.579 21.6469Z" fill="#3F3D56"/>
<path d="M139.154 21.6469C145.001 21.6469 149.741 16.8011 149.741 10.8235C149.741 4.84582 145.001 0 139.154 0C133.306 0 128.566 4.84582 128.566 10.8235C128.566 16.8011 133.306 21.6469 139.154 21.6469Z" fill="#3F3D56"/>
<path d="M175.729 21.6469C181.576 21.6469 186.316 16.8011 186.316 10.8235C186.316 4.84582 181.576 0 175.729 0C169.881 0 165.141 4.84582 165.141 10.8235C165.141 16.8011 169.881 21.6469 175.729 21.6469Z" fill="#3F3D56"/>
<path d="M514.926 2.68262H488.945C488.43 2.69281 487.94 2.90455 487.579 3.27237C487.218 3.64019 487.016 4.13474 487.016 4.64984C487.016 5.16494 487.218 5.65951 487.579 6.02733C487.94 6.39515 488.43 6.60688 488.945 6.61707H514.926C515.441 6.60688 515.932 6.39515 516.292 6.02733C516.653 5.65951 516.855 5.16494 516.855 4.64984C516.855 4.13474 516.653 3.64019 516.292 3.27237C515.932 2.90455 515.441 2.69281 514.926 2.68262V2.68262Z" fill="#3F3D56"/>
<path d="M514.926 10.0671H488.945C488.43 10.0773 487.94 10.2891 487.579 10.6569C487.218 11.0247 487.016 11.5193 487.016 12.0344C487.016 12.5495 487.218 13.044 487.579 13.4118C487.94 13.7797 488.43 13.9914 488.945 14.0016H514.926C515.441 13.9914 515.932 13.7797 516.292 13.4118C516.653 13.044 516.855 12.5495 516.855 12.0344C516.855 11.5193 516.653 11.0247 516.292 10.6569C515.932 10.2891 515.441 10.0773 514.926 10.0671V10.0671Z" fill="#3F3D56"/>
<path d="M514.926 17.4417H488.945C488.43 17.4518 487.94 17.6636 487.579 18.0314C487.218 18.3992 487.016 18.8938 487.016 19.4089C487.016 19.924 487.218 20.4185 487.579 20.7863C487.94 21.1542 488.43 21.3659 488.945 21.3761H514.926C515.441 21.3659 515.932 21.1542 516.292 20.7863C516.653 20.4185 516.855 19.924 516.855 19.4089C516.855 18.8938 516.653 18.3992 516.292 18.0314C515.932 17.6636 515.441 17.4518 514.926 17.4417V17.4417Z" fill="#3F3D56"/>
<path d="M129.883 390.627C130.595 390.031 131.168 389.287 131.562 388.445C131.955 387.604 132.159 386.687 132.159 385.759C132.16 384.83 131.956 383.913 131.564 383.071C131.171 382.23 130.599 381.484 129.888 380.888L126.034 347.593L113.8 350.426L120.599 381.987C119.676 383.249 119.249 384.805 119.397 386.361C119.545 387.918 120.259 389.365 121.403 390.43C122.548 391.496 124.043 392.104 125.606 392.14C127.169 392.176 128.691 391.638 129.883 390.627Z" fill="#FFB6B6"/>
<path d="M128.619 353.022L114.455 361.858C114.455 361.858 113.593 367.037 112.619 354.022C112.517 352.664 113.465 350.297 113.361 348.902C113.244 347.329 108.738 346.614 108.619 345.022C108.535 343.889 109.837 342.881 109.753 341.751C109.626 340.04 109.499 338.338 109.375 336.663C109.271 335.262 107.719 334.374 107.619 333.022C107.518 331.659 108.869 329.832 108.774 328.54C108.06 318.851 110.529 294.476 110.529 293.98C110.338 292.736 109.818 291.565 109.024 290.589L109.78 288.328L109.28 284.085C108.623 278.51 109.795 272.873 112.619 268.022V268.022L116.216 265.667L132.814 293.584C125.83 317.742 121.27 327.23 128.619 353.022Z" fill="#519CFC"/>
<path d="M117.567 561.177H126.135L130.213 528.128H117.567V561.177Z" fill="#FFB6B6"/>
<path d="M114.771 555.308L128.46 554.491V560.356L141.474 569.344C142.117 569.788 142.601 570.426 142.856 571.164C143.11 571.902 143.122 572.703 142.89 573.449C142.657 574.195 142.193 574.847 141.563 575.31C140.934 575.772 140.173 576.022 139.392 576.022H123.095L120.286 570.221L119.19 576.022H113.045L114.771 555.308Z" fill="#2F2E41"/>
<path d="M165.696 561.177H174.264L178.341 528.128H165.696V561.177Z" fill="#FFB6B6"/>
<path d="M162.899 555.308L176.588 554.491V560.356L189.602 569.344C190.245 569.788 190.729 570.426 190.984 571.164C191.239 571.902 191.251 572.703 191.018 573.449C190.786 574.195 190.321 574.847 189.692 575.31C189.062 575.772 188.302 576.022 187.52 576.022H171.224L168.415 570.221L167.318 576.022H161.173L162.899 555.308Z" fill="#2F2E41"/>
<path d="M113.93 532.677H113.964L115.612 453.973C114.545 451.916 114.004 449.627 114.036 447.31C114.068 444.994 114.673 442.721 115.796 440.695L116.032 440.267L115.42 437.432C114.634 433.789 114.995 429.992 116.452 426.562L117.989 376.437C112.497 340.844 138.671 317.632 138.671 317.632H177.878L186.296 346.553C191.86 400.767 190.851 478.567 182.02 529.751L182.261 529.873C182.718 530.127 183.059 530.548 183.213 531.047C183.368 531.547 183.324 532.087 183.092 532.555C182.684 533.737 181.65 534.453 180.783 534.153L160.077 533.433C159.621 533.179 159.28 532.758 159.125 532.258C158.97 531.759 159.014 531.219 159.247 530.751C159.655 529.569 160.688 528.853 161.555 529.152L162.963 529.864L161.51 526.907C160.635 525.127 160.257 523.143 160.415 521.166C160.573 519.188 161.262 517.29 162.408 515.671V515.671L162.154 509.161C161.07 507.893 160.325 506.372 159.986 504.738C159.647 503.105 159.725 501.413 160.213 499.818L161.61 495.259L159.96 453.042L160.293 443.571L159.607 432.826L156.433 384.496L144.42 443.929L132.148 533.276C132.443 533.542 132.663 533.881 132.784 534.26C132.905 534.638 132.924 535.042 132.839 535.43C132.712 535.945 132.414 536.401 131.994 536.724C131.574 537.046 131.056 537.217 130.526 537.206H113.871C113.521 537.206 113.177 537.125 112.864 536.97C112.551 536.814 112.278 536.589 112.067 536.311C111.855 536.033 111.711 535.71 111.645 535.367C111.579 535.024 111.593 534.67 111.685 534.334C111.826 533.849 112.122 533.425 112.528 533.126C112.933 532.826 113.426 532.669 113.93 532.677V532.677Z" fill="#2F2E41"/>
<path d="M209.21 377.69C209.796 376.969 210.217 376.129 210.443 375.229C210.669 374.328 210.695 373.389 210.519 372.477C210.343 371.565 209.969 370.703 209.424 369.952C208.879 369.2 208.176 368.577 207.364 368.127L197.254 336.171L185.781 341.277L198.453 370.97C197.787 372.385 197.663 373.994 198.104 375.494C198.545 376.994 199.521 378.279 200.847 379.108C202.173 379.936 203.757 380.249 205.298 379.988C206.839 379.726 208.231 378.909 209.21 377.69H209.21Z" fill="#FFB6B6"/>
<path d="M167.612 276.098C167.612 276.098 179.141 316.9 178.619 321.022C177.542 329.522 124.559 355.649 120.619 344.022L121.113 340.2C119.122 336.219 131.267 320.419 131.857 318.352C132.606 315.71 129.214 307.033 129.214 307.033C129.214 307.033 131.559 299.112 131.184 294.208C130.803 289.304 129.672 290.06 125.524 287.036C121.377 284.019 114.586 270.064 114.586 270.064C114.586 270.064 117.603 256.484 117.603 253.841C117.603 251.198 129.998 246.697 131.503 245.192C132.158 244.318 132.71 243.37 133.147 242.369C133.452 241.759 133.258 240.344 133.584 239.643C133.792 239.185 134.52 239.47 134.735 238.998C134.943 238.54 134.763 238.013 134.971 237.562C135.242 236.966 135.894 236.446 136.15 235.884C137.329 233.304 138.335 231.202 138.647 231.202C139.396 231.202 163.547 234.601 163.547 234.601C164.862 236.634 166.377 238.53 168.069 240.26C170.712 242.896 183.079 249.312 183.079 249.312L167.612 276.098Z" fill="#519CFC"/>
<path d="M200.223 344.742C198.336 346.628 189.001 355.29 188.619 353.022C188.245 350.761 188.041 350.491 186.529 349.742C185.017 348.986 185.017 348.611 184.642 345.968C184.268 343.326 180.869 340.683 181.25 339.553C181.625 338.422 181.275 339.86 181.275 338.723C181.275 337.592 180.145 333.445 178.633 332.689C177.128 331.933 174.86 331.184 175.997 329.297C177.128 327.41 165.35 270.813 165.35 270.813L175.914 250.068L183.079 249.312C183.079 249.312 185.256 250.557 185.938 261.788C185.972 262.357 186.593 263.401 186.619 264.022C186.641 264.538 186.071 264.624 186.086 265.177C186.09 265.296 186.093 265.415 186.096 265.535C186.11 266.086 187.597 266.491 187.619 267.022C187.659 267.972 188.243 274.027 188.306 274.917C188.377 275.92 188.461 276.886 188.557 277.816C189.6 287.937 189.973 288.792 190.619 292.022C191.619 297.022 195.764 326.224 195.764 326.224C195.764 326.224 198.782 326.973 198.782 329.616C198.782 332.259 202.109 337.57 200.604 340.587C199.092 343.611 202.109 342.855 200.223 344.742Z" fill="#519CFC"/>
<path d="M148.874 230.428C158.757 230.428 166.768 222.416 166.768 212.534C166.768 202.652 158.757 194.64 148.874 194.64C138.992 194.64 130.981 202.652 130.981 212.534C130.981 222.416 138.992 230.428 148.874 230.428Z" fill="#FFB8B8"/>
<path d="M110.315 250.139C106.528 248.797 102.742 247.453 98.9554 246.106C99.608 245.011 100.439 244.033 101.414 243.212C105.02 240.201 109.996 239.657 114.573 238.642C119.158 237.626 124.134 235.544 125.81 231.163C127.55 226.607 125.026 221.689 123.561 217.047C121.397 210.535 121.659 203.46 124.301 197.127C125.65 193.999 127.702 191.224 130.297 189.018C132.892 186.811 135.961 185.233 139.266 184.404C145.896 182.931 153.389 185.332 157.466 190.758C160.092 189.97 162.916 190.171 165.405 191.323C167.893 192.476 169.874 194.499 170.972 197.011C171.49 198.189 171.72 199.472 171.644 200.756C171.568 202.04 171.189 203.287 170.537 204.396C169.123 206.536 166.098 207.631 163.82 206.441L165.14 203.09C161.056 204.476 158.401 211.86 158.953 216.14C159.497 220.413 161.992 224.155 164.524 227.645C167.055 231.134 169.754 234.659 170.842 238.83C172.409 244.829 170.291 251.387 166.374 256.196C162.456 261.006 156.936 264.27 151.22 266.671C146.941 268.47 142.495 269.84 137.945 270.762C138.758 269.181 139.563 267.599 140.375 266.018L130.735 271.85C128.871 272.032 126.992 272.14 125.113 272.177C119.644 272.271 114.065 271.698 109.06 269.514C104.048 267.324 99.6445 263.356 97.831 258.198C97.2496 256.53 96.9744 254.771 97.0186 253.005C101.451 252.047 105.883 251.092 110.315 250.139Z" fill="#2F2E41"/>
<path d="M283.233 577.385H250.046L249.904 577.126C249.479 576.357 249.069 575.541 248.687 574.704C245.268 567.385 243.823 559.015 242.549 551.63L241.589 546.064C241.472 545.39 241.56 544.696 241.84 544.072C242.12 543.448 242.58 542.922 243.161 542.561C243.742 542.2 244.418 542.02 245.101 542.045C245.785 542.07 246.446 542.299 246.999 542.702C252.042 546.372 257.088 550.038 262.135 553.701C264.046 555.091 266.229 556.701 268.319 558.44C268.521 557.46 268.732 556.478 268.943 555.509C269.088 554.84 269.43 554.23 269.924 553.757C270.418 553.283 271.043 552.968 271.717 552.851C272.392 552.735 273.086 552.822 273.71 553.102C274.335 553.382 274.862 553.842 275.223 554.423L279.106 560.662C281.938 565.217 284.438 569.706 283.928 574.548C283.931 574.607 283.926 574.666 283.915 574.724C283.813 575.519 283.624 576.301 283.352 577.055L283.233 577.385Z" fill="#F0F0F0"/>
<path d="M316.542 578.103L1.18445 578.41C0.869858 578.409 0.568792 578.282 0.346985 578.059C0.125178 577.836 0.000671387 577.534 0.000671387 577.22C0.000671387 576.905 0.125178 576.603 0.346985 576.38C0.568792 576.157 0.869858 576.031 1.18445 576.029L316.542 575.722C316.857 575.723 317.158 575.849 317.38 576.073C317.602 576.296 317.727 576.598 317.727 576.912C317.727 577.227 317.602 577.529 317.38 577.752C317.158 577.975 316.857 578.101 316.542 578.103V578.103Z" fill="#CACACA"/>
<g opacity="0.3">
<mask id="mask0_87_568" style="mask-type:alpha" maskUnits="userSpaceOnUse" x="269" y="445" width="11" height="11">
<path d="M274.228 455.425C277.116 455.425 279.457 453.091 279.457 450.212C279.457 447.334 277.116 445 274.228 445C271.341 445 269 447.334 269 450.212C269 453.091 271.341 455.425 274.228 455.425Z" fill="url(#paint0_linear_87_568)"/>
</mask>
<g mask="url(#mask0_87_568)">
<path d="M274.228 455.425C277.116 455.425 279.457 453.091 279.457 450.212C279.457 447.334 277.116 445 274.228 445C271.341 445 269 447.334 269 450.212C269 453.091 271.341 455.425 274.228 455.425Z" fill="url(#paint1_linear_87_568)"/>
</g>
<mask id="mask1_87_568" style="mask-type:alpha" maskUnits="userSpaceOnUse" x="299" y="445" width="11" height="11">
<path d="M304.509 455.425C307.397 455.425 309.738 453.091 309.738 450.212C309.738 447.334 307.397 445 304.509 445C301.622 445 299.281 447.334 299.281 450.212C299.281 453.091 301.622 455.425 304.509 455.425Z" fill="url(#paint2_linear_87_568)"/>
</mask>
<g mask="url(#mask1_87_568)">
<path d="M304.509 455.425C307.397 455.425 309.738 453.091 309.738 450.212C309.738 447.334 307.397 445 304.509 445C301.622 445 299.281 447.334 299.281 450.212C299.281 453.091 301.622 455.425 304.509 455.425Z" fill="url(#paint3_linear_87_568)"/>
</g>
<mask id="mask2_87_568" style="mask-type:alpha" maskUnits="userSpaceOnUse" x="329" y="445" width="12" height="11">
<path d="M334.79 455.425C337.678 455.425 340.019 453.091 340.019 450.212C340.019 447.334 337.678 445 334.79 445C331.903 445 329.562 447.334 329.562 450.212C329.562 453.091 331.903 455.425 334.79 455.425Z" fill="url(#paint4_linear_87_568)"/>
</mask>
<g mask="url(#mask2_87_568)">
<path d="M334.79 455.425C337.678 455.425 340.019 453.091 340.019 450.212C340.019 447.334 337.678 445 334.79 445C331.903 445 329.562 447.334 329.562 450.212C329.562 453.091 331.903 455.425 334.79 455.425Z" fill="url(#paint5_linear_87_568)"/>
</g>
<mask id="mask3_87_568" style="mask-type:alpha" maskUnits="userSpaceOnUse" x="359" y="445" width="12" height="11">
<path d="M365.072 455.425C367.959 455.425 370.3 453.091 370.3 450.212C370.3 447.334 367.959 445 365.072 445C362.184 445 359.843 447.334 359.843 450.212C359.843 453.091 362.184 455.425 365.072 455.425Z" fill="url(#paint6_linear_87_568)"/>
</mask>
<g mask="url(#mask3_87_568)">
<path d="M365.072 455.425C367.959 455.425 370.3 453.091 370.3 450.212C370.3 447.334 367.959 445 365.072 445C362.184 445 359.843 447.334 359.843 450.212C359.843 453.091 362.184 455.425 365.072 455.425Z" fill="url(#paint7_linear_87_568)"/>
</g>
<mask id="mask4_87_568" style="mask-type:alpha" maskUnits="userSpaceOnUse" x="390" y="445" width="11" height="11">
<path d="M395.353 455.425C398.24 455.425 400.581 453.091 400.581 450.212C400.581 447.334 398.24 445 395.353 445C392.465 445 390.124 447.334 390.124 450.212C390.124 453.091 392.465 455.425 395.353 455.425Z" fill="url(#paint8_linear_87_568)"/>
</mask>
<g mask="url(#mask4_87_568)">
<path d="M395.353 455.425C398.24 455.425 400.581 453.091 400.581 450.212C400.581 447.334 398.24 445 395.353 445C392.465 445 390.124 447.334 390.124 450.212C390.124 453.091 392.465 455.425 395.353 455.425Z" fill="url(#paint9_linear_87_568)"/>
</g>
<mask id="mask5_87_568" style="mask-type:alpha" maskUnits="userSpaceOnUse" x="269" y="471" width="11" height="11">
<path d="M274.228 481.596C277.116 481.596 279.457 479.262 279.457 476.383C279.457 473.505 277.116 471.171 274.228 471.171C271.341 471.171 269 473.505 269 476.383C269 479.262 271.341 481.596 274.228 481.596Z" fill="url(#paint10_linear_87_568)"/>
</mask>
<g mask="url(#mask5_87_568)">
<path d="M274.228 481.596C277.116 481.596 279.457 479.262 279.457 476.383C279.457 473.505 277.116 471.171 274.228 471.171C271.341 471.171 269 473.505 269 476.383C269 479.262 271.341 481.596 274.228 481.596Z" fill="url(#paint11_linear_87_568)"/>
</g>
<mask id="mask6_87_568" style="mask-type:alpha" maskUnits="userSpaceOnUse" x="299" y="471" width="11" height="11">
<path d="M304.509 481.596C307.397 481.596 309.738 479.262 309.738 476.383C309.738 473.505 307.397 471.171 304.509 471.171C301.622 471.171 299.281 473.505 299.281 476.383C299.281 479.262 301.622 481.596 304.509 481.596Z" fill="url(#paint12_linear_87_568)"/>
</mask>
<g mask="url(#mask6_87_568)">
<path d="M304.509 481.596C307.397 481.596 309.738 479.262 309.738 476.383C309.738 473.505 307.397 471.171 304.509 471.171C301.622 471.171 299.281 473.505 299.281 476.383C299.281 479.262 301.622 481.596 304.509 481.596Z" fill="url(#paint13_linear_87_568)"/>
</g>
<mask id="mask7_87_568" style="mask-type:alpha" maskUnits="userSpaceOnUse" x="329" y="471" width="12" height="11">
<path d="M334.79 481.596C337.678 481.596 340.019 479.262 340.019 476.383C340.019 473.505 337.678 471.171 334.79 471.171C331.903 471.171 329.562 473.505 329.562 476.383C329.562 479.262 331.903 481.596 334.79 481.596Z" fill="url(#paint14_linear_87_568)"/>
</mask>
<g mask="url(#mask7_87_568)">
<path d="M334.79 481.596C337.678 481.596 340.019 479.262 340.019 476.383C340.019 473.505 337.678 471.171 334.79 471.171C331.903 471.171 329.562 473.505 329.562 476.383C329.562 479.262 331.903 481.596 334.79 481.596Z" fill="url(#paint15_linear_87_568)"/>
</g>
<mask id="mask8_87_568" style="mask-type:alpha" maskUnits="userSpaceOnUse" x="359" y="471" width="12" height="11">
<path d="M365.072 481.596C367.959 481.596 370.3 479.262 370.3 476.383C370.3 473.505 367.959 471.171 365.072 471.171C362.184 471.171 359.843 473.505 359.843 476.383C359.843 479.262 362.184 481.596 365.072 481.596Z" fill="url(#paint16_linear_87_568)"/>
</mask>
<g mask="url(#mask8_87_568)">
<path d="M365.072 481.596C367.959 481.596 370.3 479.262 370.3 476.383C370.3 473.505 367.959 471.171 365.072 471.171C362.184 471.171 359.843 473.505 359.843 476.383C359.843 479.262 362.184 481.596 365.072 481.596Z" fill="url(#paint17_linear_87_568)"/>
</g>
<mask id="mask9_87_568" style="mask-type:alpha" maskUnits="userSpaceOnUse" x="390" y="471" width="11" height="11">
<path d="M395.353 481.596C398.24 481.596 400.581 479.262 400.581 476.383C400.581 473.505 398.24 471.171 395.353 471.171C392.465 471.171 390.124 473.505 390.124 476.383C390.124 479.262 392.465 481.596 395.353 481.596Z" fill="url(#paint18_linear_87_568)"/>
</mask>
<g mask="url(#mask9_87_568)">
<path d="M395.353 481.596C398.24 481.596 400.581 479.262 400.581 476.383C400.581 473.505 398.24 471.171 395.353 471.171C392.465 471.171 390.124 473.505 390.124 476.383C390.124 479.262 392.465 481.596 395.353 481.596Z" fill="url(#paint19_linear_87_568)"/>
</g>
<mask id="mask10_87_568" style="mask-type:alpha" maskUnits="userSpaceOnUse" x="269" y="497" width="11" height="11">
<path d="M274.228 507.713C277.116 507.713 279.457 505.379 279.457 502.5C279.457 499.621 277.116 497.288 274.228 497.288C271.341 497.288 269 499.621 269 502.5C269 505.379 271.341 507.713 274.228 507.713Z" fill="url(#paint20_linear_87_568)"/>
</mask>
<g mask="url(#mask10_87_568)">
<path d="M274.228 507.713C277.116 507.713 279.457 505.379 279.457 502.5C279.457 499.621 277.116 497.288 274.228 497.288C271.341 497.288 269 499.621 269 502.5C269 505.379 271.341 507.713 274.228 507.713Z" fill="url(#paint21_linear_87_568)"/>
</g>
<mask id="mask11_87_568" style="mask-type:alpha" maskUnits="userSpaceOnUse" x="299" y="497" width="11" height="11">
<path d="M304.509 507.713C307.397 507.713 309.738 505.379 309.738 502.5C309.738 499.621 307.397 497.288 304.509 497.288C301.622 497.288 299.281 499.621 299.281 502.5C299.281 505.379 301.622 507.713 304.509 507.713Z" fill="url(#paint22_linear_87_568)"/>
</mask>
<g mask="url(#mask11_87_568)">
<path d="M304.509 507.713C307.397 507.713 309.738 505.379 309.738 502.5C309.738 499.621 307.397 497.288 304.509 497.288C301.622 497.288 299.281 499.621 299.281 502.5C299.281 505.379 301.622 507.713 304.509 507.713Z" fill="url(#paint23_linear_87_568)"/>
</g>
<mask id="mask12_87_568" style="mask-type:alpha" maskUnits="userSpaceOnUse" x="329" y="497" width="12" height="11">
<path d="M334.79 507.713C337.678 507.713 340.019 505.379 340.019 502.5C340.019 499.621 337.678 497.288 334.79 497.288C331.903 497.288 329.562 499.621 329.562 502.5C329.562 505.379 331.903 507.713 334.79 507.713Z" fill="url(#paint24_linear_87_568)"/>
</mask>
<g mask="url(#mask12_87_568)">
<path d="M334.79 507.713C337.678 507.713 340.019 505.379 340.019 502.5C340.019 499.621 337.678 497.288 334.79 497.288C331.903 497.288 329.562 499.621 329.562 502.5C329.562 505.379 331.903 507.713 334.79 507.713Z" fill="url(#paint25_linear_87_568)"/>
</g>
<mask id="mask13_87_568" style="mask-type:alpha" maskUnits="userSpaceOnUse" x="359" y="497" width="12" height="11">
<path d="M365.072 507.713C367.959 507.713 370.3 505.379 370.3 502.5C370.3 499.621 367.959 497.288 365.072 497.288C362.184 497.288 359.843 499.621 359.843 502.5C359.843 505.379 362.184 507.713 365.072 507.713Z" fill="url(#paint26_linear_87_568)"/>
</mask>
<g mask="url(#mask13_87_568)">
<path d="M365.072 507.713C367.959 507.713 370.3 505.379 370.3 502.5C370.3 499.621 367.959 497.288 365.072 497.288C362.184 497.288 359.843 499.621 359.843 502.5C359.843 505.379 362.184 507.713 365.072 507.713Z" fill="url(#paint27_linear_87_568)"/>
</g>
<mask id="mask14_87_568" style="mask-type:alpha" maskUnits="userSpaceOnUse" x="390" y="497" width="11" height="11">
<path d="M395.353 507.713C398.24 507.713 400.581 505.379 400.581 502.5C400.581 499.621 398.24 497.288 395.353 497.288C392.465 497.288 390.124 499.621 390.124 502.5C390.124 505.379 392.465 507.713 395.353 507.713Z" fill="url(#paint28_linear_87_568)"/>
</mask>
<g mask="url(#mask14_87_568)">
<path d="M395.353 507.713C398.24 507.713 400.581 505.379 400.581 502.5C400.581 499.621 398.24 497.288 395.353 497.288C392.465 497.288 390.124 499.621 390.124 502.5C390.124 505.379 392.465 507.713 395.353 507.713Z" fill="url(#paint29_linear_87_568)"/>
</g>
<mask id="mask15_87_568" style="mask-type:alpha" maskUnits="userSpaceOnUse" x="269" y="523" width="11" height="11">
<path d="M274.228 533.883C277.116 533.883 279.457 531.55 279.457 528.671C279.457 525.792 277.116 523.458 274.228 523.458C271.341 523.458 269 525.792 269 528.671C269 531.55 271.341 533.883 274.228 533.883Z" fill="url(#paint30_linear_87_568)"/>
</mask>
<g mask="url(#mask15_87_568)">
<path d="M274.228 533.883C277.116 533.883 279.457 531.55 279.457 528.671C279.457 525.792 277.116 523.458 274.228 523.458C271.341 523.458 269 525.792 269 528.671C269 531.55 271.341 533.883 274.228 533.883Z" fill="url(#paint31_linear_87_568)"/>
</g>
<mask id="mask16_87_568" style="mask-type:alpha" maskUnits="userSpaceOnUse" x="299" y="523" width="11" height="11">
<path d="M304.509 533.883C307.397 533.883 309.738 531.55 309.738 528.671C309.738 525.792 307.397 523.458 304.509 523.458C301.622 523.458 299.281 525.792 299.281 528.671C299.281 531.55 301.622 533.883 304.509 533.883Z" fill="url(#paint32_linear_87_568)"/>
</mask>
<g mask="url(#mask16_87_568)">
<path d="M304.509 533.883C307.397 533.883 309.738 531.55 309.738 528.671C309.738 525.792 307.397 523.458 304.509 523.458C301.622 523.458 299.281 525.792 299.281 528.671C299.281 531.55 301.622 533.883 304.509 533.883Z" fill="url(#paint33_linear_87_568)"/>
</g>
<mask id="mask17_87_568" style="mask-type:alpha" maskUnits="userSpaceOnUse" x="329" y="523" width="12" height="11">
<path d="M334.79 533.883C337.678 533.883 340.019 531.55 340.019 528.671C340.019 525.792 337.678 523.458 334.79 523.458C331.903 523.458 329.562 525.792 329.562 528.671C329.562 531.55 331.903 533.883 334.79 533.883Z" fill="url(#paint34_linear_87_568)"/>
</mask>
<g mask="url(#mask17_87_568)">
<path d="M334.79 533.883C337.678 533.883 340.019 531.55 340.019 528.671C340.019 525.792 337.678 523.458 334.79 523.458C331.903 523.458 329.562 525.792 329.562 528.671C329.562 531.55 331.903 533.883 334.79 533.883Z" fill="url(#paint35_linear_87_568)"/>
</g>
<mask id="mask18_87_568" style="mask-type:alpha" maskUnits="userSpaceOnUse" x="359" y="523" width="12" height="11">
<path d="M365.072 533.883C367.959 533.883 370.3 531.55 370.3 528.671C370.3 525.792 367.959 523.458 365.072 523.458C362.184 523.458 359.843 525.792 359.843 528.671C359.843 531.55 362.184 533.883 365.072 533.883Z" fill="url(#paint36_linear_87_568)"/>
</mask>
<g mask="url(#mask18_87_568)">
<path d="M365.072 533.883C367.959 533.883 370.3 531.55 370.3 528.671C370.3 525.792 367.959 523.458 365.072 523.458C362.184 523.458 359.843 525.792 359.843 528.671C359.843 531.55 362.184 533.883 365.072 533.883Z" fill="url(#paint37_linear_87_568)"/>
</g>
<mask id="mask19_87_568" style="mask-type:alpha" maskUnits="userSpaceOnUse" x="390" y="523" width="11" height="11">
<path d="M395.353 533.883C398.24 533.883 400.581 531.55 400.581 528.671C400.581 525.792 398.24 523.458 395.353 523.458C392.465 523.458 390.124 525.792 390.124 528.671C390.124 531.55 392.465 533.883 395.353 533.883Z" fill="url(#paint38_linear_87_568)"/>
</mask>
<g mask="url(#mask19_87_568)">
<path d="M395.353 533.883C398.24 533.883 400.581 531.55 400.581 528.671C400.581 525.792 398.24 523.458 395.353 523.458C392.465 523.458 390.124 525.792 390.124 528.671C390.124 531.55 392.465 533.883 395.353 533.883Z" fill="url(#paint39_linear_87_568)"/>
</g>
<mask id="mask20_87_568" style="mask-type:alpha" maskUnits="userSpaceOnUse" x="269" y="549" width="11" height="11">
<path d="M274.228 560C277.116 560 279.457 557.666 279.457 554.787C279.457 551.909 277.116 549.575 274.228 549.575C271.341 549.575 269 551.909 269 554.787C269 557.666 271.341 560 274.228 560Z" fill="url(#paint40_linear_87_568)"/>
</mask>
<g mask="url(#mask20_87_568)">
<path d="M274.228 560C277.116 560 279.457 557.666 279.457 554.787C279.457 551.909 277.116 549.575 274.228 549.575C271.341 549.575 269 551.909 269 554.787C269 557.666 271.341 560 274.228 560Z" fill="url(#paint41_linear_87_568)"/>
</g>
<mask id="mask21_87_568" style="mask-type:alpha" maskUnits="userSpaceOnUse" x="299" y="549" width="11" height="11">
<path d="M304.509 560C307.397 560 309.738 557.666 309.738 554.787C309.738 551.909 307.397 549.575 304.509 549.575C301.622 549.575 299.281 551.909 299.281 554.787C299.281 557.666 301.622 560 304.509 560Z" fill="url(#paint42_linear_87_568)"/>
</mask>
<g mask="url(#mask21_87_568)">
<path d="M304.509 560C307.397 560 309.738 557.666 309.738 554.787C309.738 551.909 307.397 549.575 304.509 549.575C301.622 549.575 299.281 551.909 299.281 554.787C299.281 557.666 301.622 560 304.509 560Z" fill="url(#paint43_linear_87_568)"/>
</g>
<mask id="mask22_87_568" style="mask-type:alpha" maskUnits="userSpaceOnUse" x="329" y="549" width="12" height="11">
<path d="M334.79 560C337.678 560 340.019 557.666 340.019 554.787C340.019 551.909 337.678 549.575 334.79 549.575C331.903 549.575 329.562 551.909 329.562 554.787C329.562 557.666 331.903 560 334.79 560Z" fill="url(#paint44_linear_87_568)"/>
</mask>
<g mask="url(#mask22_87_568)">
<path d="M334.79 560C337.678 560 340.019 557.666 340.019 554.787C340.019 551.909 337.678 549.575 334.79 549.575C331.903 549.575 329.562 551.909 329.562 554.787C329.562 557.666 331.903 560 334.79 560Z" fill="url(#paint45_linear_87_568)"/>
</g>
<mask id="mask23_87_568" style="mask-type:alpha" maskUnits="userSpaceOnUse" x="359" y="549" width="12" height="11">
<path d="M365.072 560C367.959 560 370.3 557.666 370.3 554.787C370.3 551.909 367.959 549.575 365.072 549.575C362.184 549.575 359.843 551.909 359.843 554.787C359.843 557.666 362.184 560 365.072 560Z" fill="url(#paint46_linear_87_568)"/>
</mask>
<g mask="url(#mask23_87_568)">
<path d="M365.072 560C367.959 560 370.3 557.666 370.3 554.787C370.3 551.909 367.959 549.575 365.072 549.575C362.184 549.575 359.843 551.909 359.843 554.787C359.843 557.666 362.184 560 365.072 560Z" fill="url(#paint47_linear_87_568)"/>
</g>
<mask id="mask24_87_568" style="mask-type:alpha" maskUnits="userSpaceOnUse" x="390" y="549" width="11" height="11">
<path d="M395.353 560C398.24 560 400.581 557.666 400.581 554.787C400.581 551.909 398.24 549.575 395.353 549.575C392.465 549.575 390.124 551.909 390.124 554.787C390.124 557.666 392.465 560 395.353 560Z" fill="url(#paint48_linear_87_568)"/>
</mask>
<g mask="url(#mask24_87_568)">
<path d="M395.353 560C398.24 560 400.581 557.666 400.581 554.787C400.581 551.909 398.24 549.575 395.353 549.575C392.465 549.575 390.124 551.909 390.124 554.787C390.124 557.666 392.465 560 395.353 560Z" fill="url(#paint49_linear_87_568)"/>
</g>
</g>
<defs>
<linearGradient id="paint0_linear_87_568" x1="323.996" y1="576.134" x2="252.594" y2="394.33" gradientUnits="userSpaceOnUse">
<stop/>
<stop offset="1" stop-color="white"/>
</linearGradient>
<linearGradient id="paint1_linear_87_568" x1="323.996" y1="576.134" x2="252.594" y2="394.33" gradientUnits="userSpaceOnUse">
<stop stop-color="#97C3F9"/>
<stop offset="1" stop-color="#93C1F9"/>
</linearGradient>
<linearGradient id="paint2_linear_87_568" x1="350.201" y1="565.843" x2="278.799" y2="384.039" gradientUnits="userSpaceOnUse">
<stop/>
<stop offset="1" stop-color="white"/>
</linearGradient>
<linearGradient id="paint3_linear_87_568" x1="350.201" y1="565.843" x2="278.799" y2="384.039" gradientUnits="userSpaceOnUse">
<stop stop-color="#97C3F9"/>
<stop offset="1" stop-color="#93C1F9"/>
</linearGradient>
<linearGradient id="paint4_linear_87_568" x1="376.405" y1="555.551" x2="305.003" y2="373.747" gradientUnits="userSpaceOnUse">
<stop/>
<stop offset="1" stop-color="white"/>
</linearGradient>
<linearGradient id="paint5_linear_87_568" x1="376.405" y1="555.551" x2="305.003" y2="373.747" gradientUnits="userSpaceOnUse">
<stop stop-color="#97C3F9"/>
<stop offset="1" stop-color="#93C1F9"/>
</linearGradient>
<linearGradient id="paint6_linear_87_568" x1="402.609" y1="545.259" x2="331.208" y2="363.456" gradientUnits="userSpaceOnUse">
<stop/>
<stop offset="1" stop-color="white"/>
</linearGradient>
<linearGradient id="paint7_linear_87_568" x1="402.609" y1="545.259" x2="331.208" y2="363.456" gradientUnits="userSpaceOnUse">
<stop stop-color="#97C3F9"/>
<stop offset="1" stop-color="#93C1F9"/>
</linearGradient>
<linearGradient id="paint8_linear_87_568" x1="428.813" y1="534.968" x2="357.412" y2="353.164" gradientUnits="userSpaceOnUse">
<stop/>
<stop offset="1" stop-color="white"/>
</linearGradient>
<linearGradient id="paint9_linear_87_568" x1="428.813" y1="534.968" x2="357.412" y2="353.164" gradientUnits="userSpaceOnUse">
<stop stop-color="#97C3F9"/>
<stop offset="1" stop-color="#93C1F9"/>
</linearGradient>
<linearGradient id="paint10_linear_87_568" x1="315.054" y1="579.645" x2="243.653" y2="397.843" gradientUnits="userSpaceOnUse">
<stop/>
<stop offset="1" stop-color="white"/>
</linearGradient>
<linearGradient id="paint11_linear_87_568" x1="315.054" y1="579.645" x2="243.653" y2="397.843" gradientUnits="userSpaceOnUse">
<stop stop-color="#97C3F9"/>
<stop offset="1" stop-color="#93C1F9"/>
</linearGradient>
<linearGradient id="paint12_linear_87_568" x1="341.258" y1="569.354" x2="269.858" y2="387.551" gradientUnits="userSpaceOnUse">
<stop/>
<stop offset="1" stop-color="white"/>
</linearGradient>
<linearGradient id="paint13_linear_87_568" x1="341.258" y1="569.354" x2="269.858" y2="387.551" gradientUnits="userSpaceOnUse">
<stop stop-color="#97C3F9"/>
<stop offset="1" stop-color="#93C1F9"/>
</linearGradient>
<linearGradient id="paint14_linear_87_568" x1="367.462" y1="559.062" x2="296.062" y2="377.26" gradientUnits="userSpaceOnUse">
<stop/>
<stop offset="1" stop-color="white"/>
</linearGradient>
<linearGradient id="paint15_linear_87_568" x1="367.462" y1="559.062" x2="296.062" y2="377.26" gradientUnits="userSpaceOnUse">
<stop stop-color="#97C3F9"/>
<stop offset="1" stop-color="#93C1F9"/>
</linearGradient>
<linearGradient id="paint16_linear_87_568" x1="393.667" y1="548.771" x2="322.266" y2="366.968" gradientUnits="userSpaceOnUse">
<stop/>
<stop offset="1" stop-color="white"/>
</linearGradient>
<linearGradient id="paint17_linear_87_568" x1="393.667" y1="548.771" x2="322.266" y2="366.968" gradientUnits="userSpaceOnUse">
<stop stop-color="#97C3F9"/>
<stop offset="1" stop-color="#93C1F9"/>
</linearGradient>
<linearGradient id="paint18_linear_87_568" x1="419.871" y1="538.479" x2="348.471" y2="356.677" gradientUnits="userSpaceOnUse">
<stop/>
<stop offset="1" stop-color="white"/>
</linearGradient>
<linearGradient id="paint19_linear_87_568" x1="419.871" y1="538.479" x2="348.471" y2="356.677" gradientUnits="userSpaceOnUse">
<stop stop-color="#97C3F9"/>
<stop offset="1" stop-color="#93C1F9"/>
</linearGradient>
<linearGradient id="paint20_linear_87_568" x1="306.111" y1="583.158" x2="234.71" y2="401.354" gradientUnits="userSpaceOnUse">
<stop/>
<stop offset="1" stop-color="white"/>
</linearGradient>
<linearGradient id="paint21_linear_87_568" x1="306.111" y1="583.158" x2="234.71" y2="401.354" gradientUnits="userSpaceOnUse">
<stop stop-color="#97C3F9"/>
<stop offset="1" stop-color="#93C1F9"/>
</linearGradient>
<linearGradient id="paint22_linear_87_568" x1="332.316" y1="572.867" x2="260.914" y2="391.063" gradientUnits="userSpaceOnUse">
<stop/>
<stop offset="1" stop-color="white"/>
</linearGradient>
<linearGradient id="paint23_linear_87_568" x1="332.316" y1="572.867" x2="260.914" y2="391.063" gradientUnits="userSpaceOnUse">
<stop stop-color="#97C3F9"/>
<stop offset="1" stop-color="#93C1F9"/>
</linearGradient>
<linearGradient id="paint24_linear_87_568" x1="358.52" y1="562.575" x2="287.118" y2="380.771" gradientUnits="userSpaceOnUse">
<stop/>
<stop offset="1" stop-color="white"/>
</linearGradient>
<linearGradient id="paint25_linear_87_568" x1="358.52" y1="562.575" x2="287.118" y2="380.771" gradientUnits="userSpaceOnUse">
<stop stop-color="#97C3F9"/>
<stop offset="1" stop-color="#93C1F9"/>
</linearGradient>
<linearGradient id="paint26_linear_87_568" x1="384.724" y1="552.283" x2="313.323" y2="370.48" gradientUnits="userSpaceOnUse">
<stop/>
<stop offset="1" stop-color="white"/>
</linearGradient>
<linearGradient id="paint27_linear_87_568" x1="384.724" y1="552.283" x2="313.323" y2="370.48" gradientUnits="userSpaceOnUse">
<stop stop-color="#97C3F9"/>
<stop offset="1" stop-color="#93C1F9"/>
</linearGradient>
<linearGradient id="paint28_linear_87_568" x1="410.929" y1="541.992" x2="339.527" y2="360.188" gradientUnits="userSpaceOnUse">
<stop/>
<stop offset="1" stop-color="white"/>
</linearGradient>
<linearGradient id="paint29_linear_87_568" x1="410.929" y1="541.992" x2="339.527" y2="360.188" gradientUnits="userSpaceOnUse">
<stop stop-color="#97C3F9"/>
<stop offset="1" stop-color="#93C1F9"/>
</linearGradient>
<linearGradient id="paint30_linear_87_568" x1="297.169" y1="586.67" x2="225.767" y2="404.866" gradientUnits="userSpaceOnUse">
<stop/>
<stop offset="1" stop-color="white"/>
</linearGradient>
<linearGradient id="paint31_linear_87_568" x1="297.169" y1="586.67" x2="225.767" y2="404.866" gradientUnits="userSpaceOnUse">
<stop stop-color="#97C3F9"/>
<stop offset="1" stop-color="#93C1F9"/>
</linearGradient>
<linearGradient id="paint32_linear_87_568" x1="323.373" y1="576.379" x2="251.972" y2="394.575" gradientUnits="userSpaceOnUse">
<stop/>
<stop offset="1" stop-color="white"/>
</linearGradient>
<linearGradient id="paint33_linear_87_568" x1="323.373" y1="576.379" x2="251.972" y2="394.575" gradientUnits="userSpaceOnUse">
<stop stop-color="#97C3F9"/>
<stop offset="1" stop-color="#93C1F9"/>
</linearGradient>
<linearGradient id="paint34_linear_87_568" x1="349.578" y1="566.087" x2="278.176" y2="384.283" gradientUnits="userSpaceOnUse">
<stop/>
<stop offset="1" stop-color="white"/>
</linearGradient>
<linearGradient id="paint35_linear_87_568" x1="349.578" y1="566.087" x2="278.176" y2="384.283" gradientUnits="userSpaceOnUse">
<stop stop-color="#97C3F9"/>
<stop offset="1" stop-color="#93C1F9"/>
</linearGradient>
<linearGradient id="paint36_linear_87_568" x1="375.782" y1="555.796" x2="304.38" y2="373.992" gradientUnits="userSpaceOnUse">
<stop/>
<stop offset="1" stop-color="white"/>
</linearGradient>
<linearGradient id="paint37_linear_87_568" x1="375.782" y1="555.796" x2="304.38" y2="373.992" gradientUnits="userSpaceOnUse">
<stop stop-color="#97C3F9"/>
<stop offset="1" stop-color="#93C1F9"/>
</linearGradient>
<linearGradient id="paint38_linear_87_568" x1="401.986" y1="545.504" x2="330.585" y2="363.7" gradientUnits="userSpaceOnUse">
<stop/>
<stop offset="1" stop-color="white"/>
</linearGradient>
<linearGradient id="paint39_linear_87_568" x1="401.986" y1="545.504" x2="330.585" y2="363.7" gradientUnits="userSpaceOnUse">
<stop stop-color="#97C3F9"/>
<stop offset="1" stop-color="#93C1F9"/>
</linearGradient>
<linearGradient id="paint40_linear_87_568" x1="288.227" y1="590.182" x2="216.825" y2="408.378" gradientUnits="userSpaceOnUse">
<stop/>
<stop offset="1" stop-color="white"/>
</linearGradient>
<linearGradient id="paint41_linear_87_568" x1="288.227" y1="590.182" x2="216.825" y2="408.378" gradientUnits="userSpaceOnUse">
<stop stop-color="#97C3F9"/>
<stop offset="1" stop-color="#93C1F9"/>
</linearGradient>
<linearGradient id="paint42_linear_87_568" x1="314.431" y1="579.89" x2="243.029" y2="398.087" gradientUnits="userSpaceOnUse">
<stop/>
<stop offset="1" stop-color="white"/>
</linearGradient>
<linearGradient id="paint43_linear_87_568" x1="314.431" y1="579.89" x2="243.029" y2="398.087" gradientUnits="userSpaceOnUse">
<stop stop-color="#97C3F9"/>
<stop offset="1" stop-color="#93C1F9"/>
</linearGradient>
<linearGradient id="paint44_linear_87_568" x1="340.635" y1="569.599" x2="269.234" y2="387.795" gradientUnits="userSpaceOnUse">
<stop/>
<stop offset="1" stop-color="white"/>
</linearGradient>
<linearGradient id="paint45_linear_87_568" x1="340.635" y1="569.599" x2="269.234" y2="387.795" gradientUnits="userSpaceOnUse">
<stop stop-color="#97C3F9"/>
<stop offset="1" stop-color="#93C1F9"/>
</linearGradient>
<linearGradient id="paint46_linear_87_568" x1="366.84" y1="559.307" x2="295.438" y2="377.504" gradientUnits="userSpaceOnUse">
<stop/>
<stop offset="1" stop-color="white"/>
</linearGradient>
<linearGradient id="paint47_linear_87_568" x1="366.84" y1="559.307" x2="295.438" y2="377.504" gradientUnits="userSpaceOnUse">
<stop stop-color="#97C3F9"/>
<stop offset="1" stop-color="#93C1F9"/>
</linearGradient>
<linearGradient id="paint48_linear_87_568" x1="393.044" y1="549.016" x2="321.642" y2="367.212" gradientUnits="userSpaceOnUse">
<stop/>
<stop offset="1" stop-color="white"/>
</linearGradient>
<linearGradient id="paint49_linear_87_568" x1="393.044" y1="549.016" x2="321.642" y2="367.212" gradientUnits="userSpaceOnUse">
<stop stop-color="#97C3F9"/>
<stop offset="1" stop-color="#93C1F9"/>
</linearGradient>
</defs>
</svg>
