<svg width="732" height="396" viewBox="0 0 732 396" fill="none" xmlns="http://www.w3.org/2000/svg">
<path d="M449.883 132.145C467.339 132.145 481.49 120.624 481.49 106.413C481.49 92.2007 467.339 80.6797 449.883 80.6797C432.426 80.6797 418.275 92.2007 418.275 106.413C418.275 120.624 432.426 132.145 449.883 132.145Z" fill="#F2F2F2"/>
<path d="M261.993 80.6796C276.54 80.6796 288.333 71.0788 288.333 59.2355C288.333 47.3923 276.54 37.7915 261.993 37.7915C247.446 37.7915 235.653 47.3923 235.653 59.2355C235.653 71.0788 247.446 80.6796 261.993 80.6796Z" fill="#F2F2F2"/>
<path d="M175.95 283.683C190.497 283.683 202.29 274.082 202.29 262.239C202.29 250.396 190.497 240.795 175.95 240.795C161.403 240.795 149.61 250.396 149.61 262.239C149.61 274.082 161.403 283.683 175.95 283.683Z" fill="#F2F2F2"/>
<path d="M149.178 295.12C156.808 302.483 165.061 355.561 173.867 361.98L587.032 362.694C595.838 356.275 604.091 303.197 611.721 295.835L149.178 295.12Z" fill="#E6E6E6"/>
<path d="M277.97 232.772V306.082H341.054V232.772C341.055 232.245 340.848 231.731 340.464 231.306C340.08 230.882 339.539 230.569 338.92 230.413C338.629 230.335 338.323 230.296 338.016 230.299H281.017C280.618 230.298 280.222 230.362 279.852 230.486C279.483 230.61 279.147 230.792 278.864 231.021C278.581 231.251 278.357 231.524 278.203 231.824C278.05 232.125 277.971 232.447 277.97 232.772ZM302.589 257.962C302.606 256.516 303.323 255.135 304.584 254.118C305.845 253.101 307.548 252.53 309.323 252.53C311.099 252.53 312.802 253.101 314.063 254.118C315.324 255.135 316.041 256.516 316.058 257.962V266.468C316.049 267.917 315.335 269.304 314.073 270.326C312.811 271.348 311.104 271.922 309.323 271.922C307.543 271.922 305.836 271.348 304.574 270.326C303.312 269.304 302.598 267.917 302.589 266.468V257.962Z" fill="#3F3D56"/>
<path d="M178.731 122.321V256.175C178.733 257.88 179.566 259.516 181.048 260.722C182.529 261.928 184.538 262.606 186.633 262.608H430.275C432.37 262.606 434.379 261.928 435.861 260.722C437.342 259.516 438.175 257.88 438.177 256.175V122.321C438.172 120.617 437.338 118.983 435.857 117.779C434.376 116.574 432.369 115.897 430.275 115.895H186.633C184.54 115.897 182.533 116.574 181.052 117.779C179.571 118.983 178.736 120.617 178.731 122.321Z" fill="#3F3D56"/>
<path d="M184.447 123.986V254.523C184.449 255.435 184.895 256.308 185.686 256.953C186.478 257.597 187.551 257.96 188.67 257.962H428.247C429.367 257.96 430.44 257.597 431.231 256.953C432.023 256.308 432.468 255.435 432.47 254.523V123.986C432.47 123.074 432.025 122.199 431.234 121.553C430.442 120.907 429.368 120.543 428.247 120.541H188.67C187.549 120.543 186.475 120.907 185.684 121.553C184.892 122.199 184.447 123.074 184.447 123.986Z" fill="#519CFC"/>
<path d="M233.298 313.859C233.542 314.108 233.852 314.309 234.205 314.446C234.558 314.584 234.944 314.654 235.335 314.653H377.868C378.258 314.652 378.643 314.581 378.994 314.444C379.346 314.308 379.656 314.109 379.902 313.862C380.147 313.616 380.322 313.328 380.414 313.02C380.506 312.711 380.512 312.39 380.432 312.079L378.219 303.523C378.128 303.174 377.93 302.85 377.645 302.579C377.36 302.308 376.996 302.099 376.586 301.972C376.29 301.877 375.974 301.829 375.656 301.829H237.539C237.221 301.829 236.905 301.877 236.608 301.972C236.199 302.099 235.835 302.308 235.55 302.579C235.264 302.85 235.067 303.174 234.975 303.523L232.763 312.079C232.684 312.39 232.691 312.711 232.784 313.018C232.877 313.326 233.052 313.614 233.298 313.859Z" fill="#3F3D56"/>
<path d="M196.373 138.523H420.544C420.777 138.519 420.999 138.441 421.162 138.305C421.325 138.169 421.416 137.987 421.416 137.797C421.416 137.608 421.325 137.425 421.162 137.29C420.999 137.154 420.777 137.076 420.544 137.072H196.373C196.14 137.076 195.918 137.154 195.755 137.29C195.592 137.425 195.501 137.608 195.501 137.797C195.501 137.987 195.592 138.169 195.755 138.305C195.918 138.441 196.14 138.519 196.373 138.523Z" fill="#3F3D56"/>
<path d="M405.285 133.366C408.17 133.366 410.509 131.419 410.509 129.018C410.509 126.616 408.17 124.67 405.285 124.67C402.399 124.67 400.06 126.616 400.06 129.018C400.06 131.419 402.399 133.366 405.285 133.366Z" fill="#3F3D56"/>
<path d="M387.237 133.366C390.122 133.366 392.461 131.419 392.461 129.018C392.461 126.616 390.122 124.67 387.237 124.67C384.351 124.67 382.012 126.616 382.012 129.018C382.012 131.419 384.351 133.366 387.237 133.366Z" fill="#3F3D56"/>
<path d="M369.189 133.366C372.074 133.366 374.413 131.419 374.413 129.018C374.413 126.616 372.074 124.67 369.189 124.67C366.303 124.67 363.964 126.616 363.964 129.018C363.964 131.419 366.303 133.366 369.189 133.366Z" fill="#3F3D56"/>
<path d="M206.284 126.538C206.283 126.641 206.308 126.743 206.355 126.838C206.403 126.933 206.473 127.02 206.562 127.093C206.651 127.166 206.757 127.224 206.873 127.264C206.99 127.303 207.115 127.324 207.241 127.325H220.06C220.313 127.32 220.554 127.234 220.731 127.087C220.908 126.939 221.007 126.741 221.007 126.535C221.007 126.328 220.908 126.13 220.731 125.983C220.554 125.835 220.313 125.75 220.06 125.745H207.241C206.985 125.747 206.741 125.832 206.561 125.981C206.382 126.13 206.282 126.33 206.284 126.538Z" fill="#3F3D56"/>
<path d="M206.284 129.505C206.283 129.607 206.308 129.709 206.355 129.804C206.403 129.9 206.473 129.986 206.562 130.059C206.651 130.132 206.757 130.19 206.873 130.23C206.99 130.27 207.115 130.29 207.241 130.291H220.06C220.313 130.286 220.554 130.201 220.732 130.053C220.909 129.906 221.008 129.708 221.008 129.501C221.008 129.295 220.909 129.096 220.732 128.949C220.554 128.801 220.313 128.716 220.06 128.711H207.241C206.985 128.714 206.741 128.799 206.561 128.947C206.382 129.096 206.282 129.296 206.284 129.505Z" fill="#3F3D56"/>
<path d="M206.284 132.464C206.282 132.672 206.382 132.873 206.561 133.021C206.741 133.17 206.985 133.255 207.241 133.257H220.06C220.313 133.253 220.554 133.167 220.731 133.02C220.908 132.872 221.007 132.674 221.007 132.468C221.007 132.261 220.908 132.063 220.731 131.915C220.554 131.768 220.313 131.683 220.06 131.678H207.241C207.115 131.678 206.99 131.699 206.873 131.739C206.757 131.778 206.651 131.836 206.562 131.909C206.473 131.982 206.403 132.069 206.355 132.164C206.308 132.259 206.283 132.361 206.284 132.464Z" fill="#3F3D56"/>
<path d="M698.829 280.343C698.812 280.307 698.803 280.278 698.786 280.25C698.446 279.506 698.05 278.78 697.6 278.077C695.045 274.167 697.749 268.162 694.87 261.529C690.216 250.778 684.544 244.438 676.23 238.756C675.984 238.584 675.738 238.42 675.484 238.248L675.475 238.241C669.926 234.531 663.236 231.064 654.93 226.747C653.2 225.846 647.221 228.448 647.362 223.988C647.52 219.034 647.686 213.902 644.701 210.7L644.508 210.492L644.201 210.428C633.966 208.78 623.527 208.125 613.102 208.477H613.094C608.668 208.61 604.272 209.135 599.985 210.042C599.669 210.113 599.353 210.185 599.046 210.271C598.809 210.321 598.572 210.385 598.335 210.449L598.142 210.507L597.992 210.621C595.104 212.973 594.436 217.19 594.12 221.586V221.593C594.059 222.394 594.006 223.194 593.962 223.995C593.716 228.269 581.047 231.722 576.218 233.659C567.149 237.304 568.517 245.799 568.411 245.799C568.411 245.799 553.162 271.286 552.978 297.098C552.969 298.534 552.957 299.978 552.943 301.429C552.837 313.452 552.556 325.682 551.45 336.826C550.967 341.615 550.344 346.197 549.51 350.479C545.453 371.33 527.077 354.017 518.288 367.891C518.577 369.256 519.064 370.587 519.737 371.859C520.747 372.345 521.783 372.816 522.81 373.288C527.367 375.354 532.009 377.282 536.735 379.071C536.998 379.171 537.262 379.271 537.525 379.364C546.195 382.63 555.13 385.405 564.269 387.67C566.051 388.113 567.833 388.535 569.633 388.935C585.554 392.513 601.948 394.513 618.458 394.89C618.525 394.883 618.593 394.881 618.66 394.882C638.186 394.443 657.584 392.167 676.467 388.099C676.73 388.042 676.994 387.985 677.257 387.927C678.495 387.656 679.724 387.384 680.954 387.098C691.821 384.581 702.469 381.471 712.825 377.792C712.835 378.105 712.873 378.418 712.939 378.728C712.948 378.829 712.965 378.929 712.991 379.028C713.009 378.914 713.026 378.799 713.035 378.685C713.088 378.349 713.132 378.006 713.176 377.663C718.549 335.003 707.39 298.785 698.829 280.343Z" fill="#CCCCCC"/>
<path d="M621.106 204.772C649.265 204.772 672.092 186.188 672.092 163.263C672.092 140.338 649.265 121.754 621.106 121.754C592.948 121.754 570.121 140.338 570.121 163.263C570.121 186.188 592.948 204.772 621.106 204.772Z" fill="#FFB6B6"/>
<path d="M624.881 205.52C632.654 204.389 640.295 202.72 647.719 200.53C655.008 198.07 669.565 185.246 672.84 178.399C675.273 173.312 675.829 165.883 675.868 160.546C675.949 153.48 674.206 146.478 670.752 139.995C667.298 133.511 662.21 127.691 655.817 122.91C653.315 120.883 650.186 119.445 646.762 118.747C646.463 118.702 646.158 118.669 645.853 118.648C641.046 118.394 636.442 116.976 632.633 114.576C631.888 114.086 631.101 113.641 630.278 113.243C626.176 111.382 621.591 110.337 616.898 110.194C609.275 109.764 599.164 112.994 586.848 119.799C580.661 123.217 573.076 123.538 567.158 123.436C566.827 123.436 566.503 123.507 566.216 123.642C565.93 123.776 565.692 123.969 565.525 124.201C563.551 126.431 560.614 127.97 557.303 128.508C555.291 128.903 553.709 131.528 551.849 134.92C551.427 135.69 550.934 136.588 550.558 137.147L550.271 136.234L549.37 137.446C547.952 139.352 547.151 141.519 547.039 143.745C546.927 145.97 547.509 148.183 548.731 150.177C549.952 152.17 551.773 153.879 554.025 155.145C556.276 156.412 558.884 157.193 561.607 157.418C563.754 157.536 565.911 157.476 568.043 157.238C569.343 157.129 570.688 157.016 571.997 156.994C576.225 157.027 580.369 157.952 584.026 159.678C587.683 161.404 590.728 163.873 592.863 166.843C593.364 167.529 594.051 168.111 594.873 168.546C595.694 168.981 596.627 169.256 597.6 169.351C598.572 169.445 599.559 169.356 600.483 169.091C601.406 168.826 602.243 168.392 602.928 167.822C604.047 166.776 605.461 165.966 607.047 165.461C608.634 164.957 610.347 164.772 612.041 164.923C613.57 165.328 614.882 166.15 615.756 167.25C616.788 168.465 618.243 169.403 619.933 169.943C625.593 171.286 628.236 180.794 628.297 189.061C628.355 197.029 626.165 203.147 622.972 203.938C620.513 204.548 620.261 204.738 620.166 205.128L620.081 205.477L620.435 205.735C621.919 205.924 623.435 205.851 624.881 205.52Z" fill="#2F2E41"/>
<path d="M444.43 333.852C454.192 333.852 462.106 331.796 462.106 329.26C462.106 326.723 454.192 324.667 444.43 324.667C434.668 324.667 426.754 326.723 426.754 329.26C426.754 331.796 434.668 333.852 444.43 333.852Z" fill="#3F3D56"/>
<path d="M444.43 330.79C454.192 330.79 462.106 328.734 462.106 326.198C462.106 323.661 454.192 321.605 444.43 321.605C434.668 321.605 426.754 323.661 426.754 326.198C426.754 328.734 434.668 330.79 444.43 330.79Z" fill="#3F3D56"/>
<path d="M441.322 329.276L443.956 329.244L443.23 289.201C443.124 282.668 445.125 276.226 449.034 270.519C452.942 264.812 458.621 260.039 465.504 256.678L515.777 232.213L514.425 230.372L464.152 254.838C456.874 258.393 450.868 263.44 446.734 269.476C442.601 275.511 440.484 282.324 440.596 289.234L441.322 329.276Z" fill="#3F3D56"/>
<path d="M508.078 245.059C508.078 247.934 510.941 250.264 514.472 250.264C518.003 250.264 520.865 247.934 520.865 245.059V212.604C520.865 209.729 518.003 207.399 514.472 207.399C510.941 207.399 508.078 209.729 508.078 212.604V245.059Z" fill="#519CFC"/>
<path d="M430.862 274.879C431.448 276.625 432.498 278.245 433.937 279.626C435.375 281.006 437.168 282.113 439.189 282.868C441.21 283.623 443.41 284.008 445.634 283.996C447.857 283.984 450.051 283.576 452.059 282.799L489.974 314.164L495.84 291.8L458.937 265.444C457.11 262.783 454.149 260.76 450.613 259.759C447.077 258.757 443.213 258.846 439.752 260.009C436.291 261.172 433.475 263.328 431.836 266.069C430.198 268.809 429.851 271.944 430.862 274.879Z" fill="#FFB6B6"/>
<path d="M628.905 242.128L628.664 242.019L601.019 234.279C597.509 233.296 593.783 232.933 590.087 233.212C586.392 233.492 582.811 234.408 579.584 235.9C578.086 236.59 576.676 237.401 575.377 238.321L575.369 238.322C571.037 241.369 568.052 245.488 566.871 250.049L552.351 306.173L523.156 293.364L511.26 291.051L500.43 282.203L473.388 273.238L471.886 274.697L458.279 287.939L457.211 288.979L487.172 324.269L500.602 325.459L504.364 330.908L504.63 331.007L515.64 335.047L562.596 352.27L585.335 338.102L588.893 335.879C618.311 313.689 632.063 295.839 637.804 282.245C640.843 275.063 641.643 269.079 641.342 264.255C640.407 249.346 629.371 242.414 628.905 242.128Z" fill="#CCCCCC"/>
<path d="M654.893 255.806H641.723C632.672 255.806 623.71 257.258 615.348 260.077C606.986 262.897 599.388 267.03 592.988 272.241C586.588 277.451 581.511 283.637 578.047 290.445C574.584 297.253 572.801 304.549 572.801 311.918C560.516 324.287 561.268 339.819 572.801 357.966L535.052 345.153C532.473 344.282 529.576 344.28 526.996 345.146C524.416 346.013 522.363 347.678 521.289 349.775C520.215 351.872 520.207 354.231 521.267 356.333C522.327 358.436 524.369 360.109 526.943 360.987L572.801 376.552V379.45C572.801 383.815 574.931 388.001 578.722 391.087C582.513 394.173 587.654 395.907 593.016 395.907H703.601C708.962 395.907 714.104 394.173 717.895 391.087C721.686 388.001 723.815 383.815 723.815 379.45C732.014 354.963 737.145 331.215 723.815 311.918C723.815 297.036 716.554 282.764 703.628 272.241C690.703 261.718 673.172 255.806 654.893 255.806Z" fill="#3F3D56"/>
<path d="M339.256 208.629C341.196 208.629 342.768 207.349 342.768 205.77C342.768 204.191 341.196 202.911 339.256 202.911C337.316 202.911 335.744 204.191 335.744 205.77C335.744 207.349 337.316 208.629 339.256 208.629Z" fill="#F2F2F2"/>
<path d="M351.548 208.629C353.487 208.629 355.06 207.349 355.06 205.77C355.06 204.191 353.487 202.911 351.548 202.911C349.608 202.911 348.036 204.191 348.036 205.77C348.036 207.349 349.608 208.629 351.548 208.629Z" fill="#F2F2F2"/>
<path d="M363.84 208.629C365.779 208.629 367.352 207.349 367.352 205.77C367.352 204.191 365.779 202.911 363.84 202.911C361.9 202.911 360.328 204.191 360.328 205.77C360.328 207.349 361.9 208.629 363.84 208.629Z" fill="#F2F2F2"/>
<path d="M250.807 175.774L277.022 176.092C277.363 176.082 277.687 175.965 277.924 175.765C278.161 175.565 278.294 175.298 278.294 175.019C278.294 174.741 278.161 174.474 277.924 174.274C277.687 174.074 277.363 173.957 277.022 173.947L250.807 173.629C250.466 173.639 250.143 173.756 249.905 173.956C249.668 174.156 249.535 174.423 249.535 174.701C249.535 174.979 249.668 175.247 249.905 175.447C250.143 175.647 250.466 175.764 250.807 175.774Z" fill="white"/>
<path d="M282.39 198.215C285.493 200.165 290.479 198.459 291.345 195.448C292.354 191.939 288.589 188.637 284.318 188.713C279.567 188.798 276.209 192.051 275.694 195.712C275.496 197.375 275.804 199.051 276.59 200.594C277.376 202.137 278.617 203.498 280.203 204.558C281.89 205.76 283.914 206.605 286.097 207.021C288.28 207.436 290.555 207.408 292.721 206.939C294.343 206.549 293.653 204.479 292.021 204.871C289.238 205.455 286.285 205.143 283.777 203.999C281.269 202.856 279.4 200.969 278.558 198.731C277.731 196.202 278.512 193.044 281.407 191.596C284.01 190.296 287.694 190.768 288.687 193.374C288.914 193.904 288.928 194.48 288.724 195.018C288.521 195.555 288.112 196.025 287.557 196.359C287.001 196.693 286.33 196.874 285.639 196.875C284.949 196.875 284.276 196.696 283.72 196.364C283.418 196.222 283.059 196.183 282.722 196.255C282.385 196.327 282.096 196.504 281.918 196.748C281.75 196.995 281.705 197.286 281.793 197.559C281.881 197.832 282.095 198.067 282.39 198.215H282.39Z" fill="white"/>
<path d="M309.264 188.538C306.62 190.948 304.252 193.55 302.19 196.312L299.112 189.688C298.518 188.41 295.971 188.964 296.572 190.258C297.88 193.074 299.188 195.889 300.497 198.704C298.99 200.974 297.688 203.329 296.599 205.752C296.017 207.05 298.561 207.61 299.139 206.322C299.898 204.641 300.768 202.994 301.744 201.389C302.943 203.968 304.141 206.547 305.34 209.127C305.934 210.405 308.481 209.851 307.879 208.556C306.38 205.329 304.88 202.102 303.381 198.875C305.566 195.717 308.163 192.759 311.127 190.054C312.254 189.028 310.397 187.507 309.264 188.538Z" fill="white"/>
<path d="M262.492 174.726L264.333 206.868C264.412 208.242 267.046 208.25 266.967 206.868L265.126 174.726C265.047 173.352 262.412 173.344 262.492 174.726Z" fill="white"/>
<path d="M327.462 191.474H320.827C320.811 190.389 320.793 189.304 320.766 188.22C320.732 186.842 318.098 186.837 318.132 188.22C318.159 189.305 318.186 190.389 318.213 191.474H312.529C312.188 191.484 311.864 191.601 311.627 191.801C311.39 192.001 311.257 192.268 311.257 192.546C311.257 192.824 311.39 193.092 311.627 193.292C311.864 193.492 312.188 193.609 312.529 193.618H318.266C318.277 194.074 318.289 194.53 318.3 194.986C318.263 197.096 318.374 199.205 318.633 201.305C319.195 204.675 322.001 208.506 326.795 208.175C328.472 208.059 328.487 205.914 326.795 206.03C322.469 206.329 321.227 202.19 321.064 199.48C320.947 197.53 320.897 195.574 320.862 193.618H327.462C327.803 193.609 328.127 193.491 328.364 193.291C328.601 193.091 328.734 192.824 328.734 192.546C328.734 192.268 328.601 192.001 328.364 191.801C328.127 191.601 327.803 191.484 327.462 191.474Z" fill="#F2F2F2"/>
<path d="M69.0727 291.346C68.2193 291.349 67.3679 291.415 66.5289 291.542L52.5675 219.586L66.5542 150.314C67.4342 145.956 66.2517 141.489 63.2453 137.813C60.2388 134.138 55.6321 131.527 50.3543 130.507C45.0764 129.488 39.5202 130.136 34.8062 132.321C30.0922 134.506 26.5712 138.065 24.9534 142.28V142.28C19.7101 155.939 17.1154 170.181 17.263 184.492L17.7508 231.734L54.9707 304.287C55.2962 306.5 56.4002 308.59 58.1501 310.304C59.8999 312.019 62.221 313.285 64.834 313.951C67.447 314.617 70.2406 314.653 72.8787 314.057C75.5168 313.46 77.887 312.256 79.704 310.588C81.5211 308.921 82.7076 306.862 83.1208 304.658C83.534 302.454 83.1563 300.201 82.0331 298.168C80.9099 296.135 79.0891 294.41 76.7898 293.199C74.4905 291.989 71.8106 291.346 69.0727 291.346Z" fill="#FFB8B8"/>
<path d="M43.5034 125.669C34.5685 125.681 26.0038 128.576 19.686 133.72C13.3681 138.864 9.81221 145.836 9.79741 153.111L16.6457 209.437L17.2603 214.483L17.5764 214.498L41.6245 215.47H41.6333L53.3018 215.941L55.3036 216.02L57.5951 209.437L77.2094 153.111C77.1998 145.835 73.6456 138.86 67.3266 133.715C61.0076 128.571 52.4399 125.677 43.5034 125.669Z" fill="#E6E6E6"/>
<path d="M44.5395 396L33.4768 368.366C33.4768 368.366 13.1953 351.575 39.2101 307C39.7808 306.014 40.3777 305.02 41.0012 304.005C42.0899 302.225 43.2547 300.4 44.4956 298.529C46.3745 295.813 48.2797 293.004 50.4308 290.102L52.3975 290.388L54.2588 290.653L60.6242 291.568H60.633L152.813 304.792C152.813 304.792 151.119 310.953 150.205 317.564C149.477 322.99 149.24 328.48 150.961 330.803C154.683 335.992 149.652 350.017 149.652 350.017C149.652 350.017 149.933 351.375 150.407 353.776V353.784C150.873 356.121 151.522 359.438 152.26 363.455C152.295 363.726 152.339 363.998 152.392 364.27C153.559 370.775 154.955 378.988 156.202 387.815C156.588 390.496 156.957 393.234 157.308 396L44.5395 396Z" fill="#2F2E41"/>
<path d="M18.2652 140.239C19.4042 137.681 21.3154 135.398 23.8227 133.6C26.3301 131.801 29.3529 130.546 32.6128 129.948C37.4448 128.829 42.4739 128.382 47.4886 128.624C62.1686 129.095 58.4672 102.32 73.0033 104.053C73.0033 104.053 86.685 100.078 97.39 107.362C107.115 113.98 113.819 131.977 116.315 130.953C116.845 130.74 118.119 130.763 119.901 130.955C140.73 133.206 155.719 148.418 154.481 165.494L153.423 180.092C153.423 180.092 160.902 189.258 150.05 205.439L136.377 255.184C136.377 255.184 170.585 310.344 154.815 321.661C139.045 332.977 77.2147 315.331 77.2147 315.331C77.2147 315.331 42.5415 306.605 35.2289 302.823C19.7822 294.834 39.5245 276.618 51.7305 277.476C52.0525 276.437 52.014 275.346 51.6194 274.323C51.2247 273.301 50.4894 272.388 49.4952 271.686C46.1216 269.932 49.9015 265.961 50.1861 265.597C49.8608 265.861 47.3002 268.046 45.3494 263.446C43.3985 258.846 49.4138 253.056 49.4138 253.056L32.4244 223.274L19.0525 199.747L17.4266 197.034L20.2158 182.395L19.9548 181.956C14.0114 171.868 12.696 160.381 16.2464 149.573C17.5344 145.598 18.4614 141.976 18.2652 140.239Z" fill="#E6E6E6"/>
<path d="M157.308 396H151.443C153.068 393.162 154.674 390.41 156.202 387.815C156.588 390.496 156.957 393.234 157.308 396Z" fill="#2F2E41"/>
<path d="M272.432 229.49C271.912 230.041 271.454 230.629 271.064 231.247L192.633 196.181L133.92 144.767C130.227 141.533 125.164 139.559 119.754 139.244C114.344 138.929 108.988 140.296 104.767 143.069C100.546 145.843 97.7733 149.816 97.009 154.188C96.2447 158.56 97.5452 163.005 100.648 166.627L100.648 166.627C110.704 178.365 122.947 188.755 136.936 197.421L183.116 226.03L276.366 246.49C278.715 247.636 281.42 248.205 284.156 248.128C286.893 248.051 289.544 247.332 291.79 246.058C294.036 244.783 295.782 243.007 296.818 240.944C297.854 238.88 298.135 236.617 297.628 234.427C297.121 232.236 295.848 230.212 293.96 228.597C292.073 226.982 289.653 225.845 286.991 225.323C284.329 224.802 281.539 224.917 278.956 225.657C276.373 226.396 274.107 227.727 272.432 229.49V229.49Z" fill="#FFB8B8"/>
<path d="M166.269 215.591L189.551 193.48L190.848 192.244L143.158 139.627C141.097 138.32 138.851 137.218 136.47 136.344L136.463 136.339C128.942 133.556 120.427 133.119 112.536 135.111C104.645 137.104 97.928 141.387 93.6611 147.146C89.3942 152.906 87.8748 159.741 89.3915 166.353C90.9082 172.965 95.3554 178.893 101.888 183.011L115.806 190.117L166.06 215.785L166.269 215.591Z" fill="#E6E6E6"/>
<path d="M124.481 79.9931C119.59 87.2742 111.799 92.9821 102.392 96.1769C92.984 99.3716 82.5204 99.8627 72.7241 97.5693C62.9278 95.2758 54.3829 90.3346 48.4968 83.5594C42.6106 76.7841 39.7341 68.5789 40.341 60.2949C40.9479 52.0109 45.002 44.1422 51.8356 37.9846C58.6693 31.827 67.875 27.7477 77.9367 26.4186C87.9984 25.0894 98.3161 26.5896 107.191 30.6722C116.065 34.7547 122.967 41.1761 126.76 48.8788C126.966 49.2968 127.151 49.7148 127.335 50.1495C129.48 55.0052 130.334 60.1762 129.842 65.3207C129.35 70.4652 127.523 75.4661 124.481 79.9931Z" fill="#FFB6B6"/>
<path d="M130.929 50.1493C128.999 45.7522 129.841 48.0427 127.89 43.6623C129.163 47.5412 127.151 49.7146 127.335 50.1493H73.9209V24.87C89.5695 19.8208 104.869 15.524 114.11 24.87C122.345 24.8703 130.243 27.5338 136.066 32.2745C141.889 37.0152 145.16 43.445 145.161 50.1494L130.929 50.1493Z" fill="#2F2E41"/>
<path d="M111.995 120.42C111.954 119.952 111.892 119.467 111.81 118.999C111.092 115.565 109.929 112.202 108.339 108.967C106.799 105.44 105.238 101.895 103.678 98.3675C105.688 104.771 105.075 111.534 101.932 117.628C92.9168 111.91 98.6055 98.8356 86.8176 98.8356C58.4778 98.8356 29.3165 80.1269 29.3165 57.0378C29.3165 33.9652 41.4738 16.7112 69.8136 16.7112C98.1741 16.7112 121.175 27.2776 121.729 50.3501C86.8176 57.0378 118.587 118.079 111.995 120.42Z" fill="#2F2E41"/>
<path d="M32.8578 53.5013C51.0046 53.5013 65.7155 41.5246 65.7155 26.7507C65.7155 11.9767 51.0046 0 32.8578 0C14.7109 0 0 11.9767 0 26.7507C0 41.5246 14.7109 53.5013 32.8578 53.5013Z" fill="#2F2E41"/>
</svg>
